<svg width="117" height="36" viewBox="0 0 117 36" fill="none" xmlns="http://www.w3.org/2000/svg">
<rect width="117" height="36" rx="4" fill="#9F06FF"/>
<g clip-path="url(#clip0_91_528)">
<path d="M26 9.80187C28.6701 9.80187 28.9863 9.81203 30.0408 9.86008C31.0158 9.90461 31.5453 10.0675 31.8977 10.2045C32.3645 10.3859 32.6976 10.6026 33.0475 10.9525C33.3975 11.3024 33.6141 11.6355 33.7955 12.1023C33.9325 12.4547 34.0954 12.9842 34.1399 13.9591C34.188 15.0137 34.1981 15.3299 34.1981 18C34.1981 20.6702 34.188 20.9864 34.1399 22.0409C34.0954 23.0159 33.9325 23.5453 33.7955 23.8977C33.6141 24.3645 33.3974 24.6977 33.0475 25.0476C32.6976 25.3975 32.3645 25.6142 31.8977 25.7955C31.5453 25.9325 31.0158 26.0955 30.0408 26.1399C28.9865 26.188 28.6702 26.1982 26 26.1982C23.3297 26.1982 23.0134 26.188 21.9591 26.1399C20.9841 26.0954 20.4547 25.9325 20.1023 25.7955C19.6355 25.6142 19.3023 25.3975 18.9524 25.0476C18.6025 24.6976 18.3858 24.3645 18.2045 23.8977C18.0675 23.5454 17.9045 23.0159 17.8601 22.0409C17.812 20.9864 17.8018 20.6702 17.8018 18C17.8018 15.3299 17.812 15.0137 17.8601 13.9592C17.9046 12.9842 18.0675 12.4547 18.2045 12.1023C18.3858 11.6355 18.6025 11.3024 18.9524 10.9525C19.3024 10.6025 19.6355 10.3859 20.1023 10.2045C20.4546 10.0675 20.9841 9.90461 21.9591 9.86008C23.0136 9.81203 23.3298 9.80187 26 9.80187ZM26 8C23.2841 8 22.9436 8.01148 21.877 8.06016C20.8126 8.10875 20.0856 8.27781 19.4496 8.525C18.792 8.78055 18.2343 9.1225 17.6784 9.67844C17.1224 10.2344 16.7805 10.792 16.525 11.4496C16.2777 12.0857 16.1087 12.8127 16.0602 13.877C16.0115 14.9436 16 15.2841 16 18C16 20.7159 16.0115 21.0564 16.0602 22.123C16.1087 23.1874 16.2777 23.9144 16.525 24.5504C16.7805 25.208 17.1224 25.7657 17.6784 26.3216C18.2343 26.8776 18.792 27.2195 19.4496 27.475C20.0857 27.7223 20.8126 27.8912 21.877 27.9398C22.9436 27.9885 23.2841 28 26 28C28.7159 28 29.0564 27.9885 30.123 27.9398C31.1873 27.8912 31.9143 27.7223 32.5503 27.475C33.208 27.2195 33.7656 26.8776 34.3216 26.3216C34.8775 25.7657 35.2195 25.208 35.475 24.5504C35.7222 23.9143 35.8912 23.1874 35.9398 22.123C35.9885 21.0564 36 20.7159 36 18C36 15.2841 35.9885 14.9436 35.9398 13.877C35.8912 12.8127 35.7222 12.0857 35.475 11.4497C35.2195 10.792 34.8775 10.2344 34.3216 9.67844C33.7656 9.1225 33.208 8.78047 32.5504 8.525C31.9143 8.27781 31.1873 8.10875 30.123 8.06016C29.0564 8.01148 28.7159 8 26 8ZM26 12.8648C23.1639 12.8648 20.8648 15.1641 20.8648 18C20.8648 20.8361 23.1639 23.1352 26 23.1352C28.836 23.1352 31.1352 20.8361 31.1352 18C31.1352 15.164 28.836 12.8648 26 12.8648ZM26 21.3334C24.1591 21.3334 22.6666 19.8409 22.6666 18C22.6666 16.1591 24.1591 14.6666 26 14.6666C27.8409 14.6666 29.3334 16.1591 29.3334 18C29.3334 19.8409 27.8409 21.3334 26 21.3334ZM32.538 12.662C32.538 13.3248 32.0008 13.862 31.338 13.862C30.6752 13.862 30.138 13.3248 30.138 12.662C30.138 11.9992 30.6752 11.462 31.338 11.462C32.0008 11.462 32.538 11.9992 32.538 12.662Z" fill="#000F08"/>
</g>
<path d="M45.2672 22.5V13.98H46.3472V22.5H45.2672ZM53.6535 22.5H52.5975V18.996C52.5975 18.332 52.4935 17.848 52.2855 17.544C52.0855 17.232 51.7775 17.076 51.3615 17.076C51.0735 17.076 50.7855 17.148 50.4975 17.292C50.2175 17.436 49.9655 17.632 49.7415 17.88C49.5255 18.12 49.3695 18.4 49.2735 18.72V22.5H48.2175V16.236H49.1775V17.58C49.3455 17.284 49.5615 17.028 49.8255 16.812C50.0895 16.596 50.3895 16.428 50.7255 16.308C51.0615 16.188 51.4135 16.128 51.7815 16.128C52.1415 16.128 52.4415 16.196 52.6815 16.332C52.9295 16.46 53.1215 16.644 53.2575 16.884C53.4015 17.116 53.5015 17.392 53.5575 17.712C53.6215 18.032 53.6535 18.38 53.6535 18.756V22.5ZM57.4449 22.62C56.9249 22.62 56.4369 22.536 55.9809 22.368C55.5249 22.192 55.1329 21.932 54.8049 21.588L55.2129 20.844C55.5729 21.18 55.9329 21.42 56.2929 21.564C56.6529 21.708 57.0209 21.78 57.3969 21.78C57.8289 21.78 58.1809 21.7 58.4529 21.54C58.7249 21.372 58.8609 21.128 58.8609 20.808C58.8609 20.576 58.7889 20.404 58.6449 20.292C58.5089 20.18 58.3129 20.088 58.0569 20.016C57.8009 19.936 57.4969 19.848 57.1449 19.752C56.7129 19.624 56.3489 19.488 56.0529 19.344C55.7569 19.2 55.5329 19.02 55.3809 18.804C55.2289 18.588 55.1529 18.316 55.1529 17.988C55.1529 17.588 55.2569 17.252 55.4649 16.98C55.6729 16.7 55.9569 16.488 56.3169 16.344C56.6849 16.2 57.1009 16.128 57.5649 16.128C58.0289 16.128 58.4489 16.2 58.8249 16.344C59.2009 16.488 59.5249 16.7 59.7969 16.98L59.3169 17.712C59.0689 17.456 58.7969 17.268 58.5009 17.148C58.2049 17.02 57.8729 16.956 57.5049 16.956C57.2889 16.956 57.0769 16.984 56.8689 17.04C56.6609 17.088 56.4889 17.18 56.3529 17.316C56.2169 17.444 56.1489 17.628 56.1489 17.868C56.1489 18.068 56.2009 18.228 56.3049 18.348C56.4169 18.46 56.5769 18.556 56.7849 18.636C57.0009 18.716 57.2609 18.804 57.5649 18.9C58.0369 19.036 58.4449 19.172 58.7889 19.308C59.1409 19.444 59.4129 19.62 59.6049 19.836C59.7969 20.052 59.8929 20.352 59.8929 20.736C59.8929 21.328 59.6689 21.792 59.2209 22.128C58.7729 22.456 58.1809 22.62 57.4449 22.62ZM64.3974 22.188C64.3094 22.228 64.1894 22.28 64.0374 22.344C63.8854 22.408 63.7094 22.464 63.5094 22.512C63.3094 22.56 63.0974 22.584 62.8734 22.584C62.6174 22.584 62.3814 22.54 62.1654 22.452C61.9494 22.356 61.7774 22.212 61.6494 22.02C61.5214 21.82 61.4574 21.572 61.4574 21.276V17.064H60.6054V16.236H61.4574V14.148H62.5134V16.236H63.9174V17.064H62.5134V20.952C62.5294 21.176 62.6054 21.344 62.7414 21.456C62.8774 21.56 63.0374 21.612 63.2214 21.612C63.4294 21.612 63.6214 21.576 63.7974 21.504C63.9734 21.432 64.0894 21.38 64.1454 21.348L64.3974 22.188ZM64.8854 20.688C64.8854 20.288 64.9974 19.944 65.2214 19.656C65.4534 19.36 65.7694 19.132 66.1694 18.972C66.5694 18.812 67.0334 18.732 67.5614 18.732C67.8414 18.732 68.1374 18.756 68.4494 18.804C68.7614 18.844 69.0374 18.908 69.2774 18.996V18.54C69.2774 18.06 69.1334 17.684 68.8454 17.412C68.5574 17.132 68.1494 16.992 67.6214 16.992C67.2774 16.992 66.9454 17.056 66.6254 17.184C66.3134 17.304 65.9814 17.48 65.6294 17.712L65.2454 16.968C65.6534 16.688 66.0614 16.48 66.4694 16.344C66.8774 16.2 67.3014 16.128 67.7414 16.128C68.5414 16.128 69.1734 16.352 69.6374 16.8C70.1014 17.24 70.3334 17.856 70.3334 18.648V21.3C70.3334 21.428 70.3574 21.524 70.4054 21.588C70.4614 21.644 70.5494 21.676 70.6694 21.684V22.5C70.5654 22.516 70.4734 22.528 70.3934 22.536C70.3214 22.544 70.2614 22.548 70.2134 22.548C69.9654 22.548 69.7774 22.48 69.6494 22.344C69.5294 22.208 69.4614 22.064 69.4454 21.912L69.4214 21.516C69.1494 21.868 68.7934 22.14 68.3534 22.332C67.9134 22.524 67.4774 22.62 67.0454 22.62C66.6294 22.62 66.2574 22.536 65.9294 22.368C65.6014 22.192 65.3454 21.96 65.1614 21.672C64.9774 21.376 64.8854 21.048 64.8854 20.688ZM68.9654 21.132C69.0614 21.02 69.1374 20.908 69.1934 20.796C69.2494 20.676 69.2774 20.576 69.2774 20.496V19.716C69.0294 19.62 68.7694 19.548 68.4974 19.5C68.2254 19.444 67.9574 19.416 67.6934 19.416C67.1574 19.416 66.7214 19.524 66.3854 19.74C66.0574 19.948 65.8934 20.236 65.8934 20.604C65.8934 20.804 65.9454 21 66.0494 21.192C66.1614 21.376 66.3214 21.528 66.5294 21.648C66.7454 21.768 67.0094 21.828 67.3214 21.828C67.6494 21.828 67.9614 21.764 68.2574 21.636C68.5534 21.5 68.7894 21.332 68.9654 21.132ZM74.5191 22.572C74.0951 22.572 73.7031 22.488 73.3431 22.32C72.9911 22.144 72.6871 21.908 72.4311 21.612C72.1751 21.308 71.9751 20.964 71.8311 20.58C71.6951 20.196 71.6271 19.796 71.6271 19.38C71.6271 18.94 71.6951 18.524 71.8311 18.132C71.9751 17.74 72.1751 17.396 72.4311 17.1C72.6951 16.796 73.0031 16.56 73.3551 16.392C73.7071 16.216 74.0991 16.128 74.5311 16.128C75.0511 16.128 75.5031 16.256 75.8871 16.512C76.2791 16.768 76.6071 17.092 76.8711 17.484V16.236H77.8071V22.428C77.8071 23.02 77.6631 23.52 77.3751 23.928C77.0951 24.336 76.7111 24.644 76.2231 24.852C75.7431 25.068 75.2071 25.176 74.6151 25.176C73.9111 25.176 73.3351 25.052 72.8871 24.804C72.4391 24.556 72.0671 24.22 71.7711 23.796L72.3831 23.256C72.6311 23.624 72.9511 23.9 73.3431 24.084C73.7431 24.268 74.1671 24.36 74.6151 24.36C74.9991 24.36 75.3511 24.288 75.6711 24.144C75.9991 24.008 76.2591 23.796 76.4511 23.508C76.6511 23.22 76.7511 22.86 76.7511 22.428V21.324C76.5191 21.708 76.1991 22.012 75.7911 22.236C75.3911 22.46 74.9671 22.572 74.5191 22.572ZM74.8431 21.708C75.0671 21.708 75.2831 21.668 75.4911 21.588C75.6991 21.508 75.8911 21.404 76.0671 21.276C76.2431 21.14 76.3911 20.988 76.5111 20.82C76.6311 20.652 76.7111 20.48 76.7511 20.304V18.504C76.6391 18.216 76.4791 17.964 76.2711 17.748C76.0631 17.524 75.8271 17.352 75.5631 17.232C75.2991 17.104 75.0271 17.04 74.7471 17.04C74.4271 17.04 74.1391 17.108 73.8831 17.244C73.6351 17.38 73.4231 17.564 73.2471 17.796C73.0711 18.02 72.9351 18.272 72.8391 18.552C72.7431 18.832 72.6951 19.116 72.6951 19.404C72.6951 19.716 72.7511 20.012 72.8631 20.292C72.9751 20.564 73.1271 20.808 73.3191 21.024C73.5111 21.24 73.7391 21.408 74.0031 21.528C74.2671 21.648 74.5471 21.708 74.8431 21.708ZM82.8246 17.16C82.2966 17.168 81.8286 17.304 81.4206 17.568C81.0206 17.824 80.7366 18.18 80.5686 18.636V22.5H79.5126V16.236H80.4966V17.688C80.7126 17.256 80.9966 16.908 81.3486 16.644C81.7086 16.372 82.0846 16.22 82.4766 16.188C82.5566 16.188 82.6246 16.188 82.6806 16.188C82.7366 16.188 82.7846 16.192 82.8246 16.2V17.16ZM83.3812 20.688C83.3812 20.288 83.4932 19.944 83.7172 19.656C83.9492 19.36 84.2652 19.132 84.6652 18.972C85.0652 18.812 85.5292 18.732 86.0572 18.732C86.3372 18.732 86.6332 18.756 86.9452 18.804C87.2572 18.844 87.5332 18.908 87.7732 18.996V18.54C87.7732 18.06 87.6292 17.684 87.3412 17.412C87.0532 17.132 86.6452 16.992 86.1172 16.992C85.7732 16.992 85.4412 17.056 85.1212 17.184C84.8092 17.304 84.4772 17.48 84.1252 17.712L83.7412 16.968C84.1492 16.688 84.5572 16.48 84.9652 16.344C85.3732 16.2 85.7972 16.128 86.2372 16.128C87.0372 16.128 87.6692 16.352 88.1332 16.8C88.5972 17.24 88.8292 17.856 88.8292 18.648V21.3C88.8292 21.428 88.8532 21.524 88.9012 21.588C88.9572 21.644 89.0452 21.676 89.1652 21.684V22.5C89.0612 22.516 88.9692 22.528 88.8892 22.536C88.8172 22.544 88.7572 22.548 88.7092 22.548C88.4612 22.548 88.2732 22.48 88.1452 22.344C88.0252 22.208 87.9572 22.064 87.9412 21.912L87.9172 21.516C87.6452 21.868 87.2892 22.14 86.8492 22.332C86.4092 22.524 85.9732 22.62 85.5412 22.62C85.1252 22.62 84.7532 22.536 84.4252 22.368C84.0972 22.192 83.8412 21.96 83.6572 21.672C83.4732 21.376 83.3812 21.048 83.3812 20.688ZM87.4612 21.132C87.5572 21.02 87.6332 20.908 87.6892 20.796C87.7452 20.676 87.7732 20.576 87.7732 20.496V19.716C87.5252 19.62 87.2652 19.548 86.9932 19.5C86.7212 19.444 86.4532 19.416 86.1892 19.416C85.6532 19.416 85.2172 19.524 84.8812 19.74C84.5532 19.948 84.3892 20.236 84.3892 20.604C84.3892 20.804 84.4412 21 84.5452 21.192C84.6572 21.376 84.8172 21.528 85.0252 21.648C85.2412 21.768 85.5052 21.828 85.8172 21.828C86.1452 21.828 86.4572 21.764 86.7532 21.636C87.0492 21.5 87.2852 21.332 87.4612 21.132ZM99.9629 22.5H98.9069V18.996C98.9069 18.34 98.7989 17.856 98.5829 17.544C98.3749 17.232 98.0629 17.076 97.6469 17.076C97.2229 17.076 96.8389 17.232 96.4949 17.544C96.1509 17.848 95.9069 18.244 95.7629 18.732V22.5H94.7069V18.996C94.7069 18.332 94.6029 17.848 94.3949 17.544C94.1869 17.232 93.8749 17.076 93.4589 17.076C93.0429 17.076 92.6589 17.228 92.3069 17.532C91.9629 17.828 91.7189 18.224 91.5749 18.72V22.5H90.5189V16.236H91.4789V17.58C91.7349 17.116 92.0669 16.76 92.4749 16.512C92.8829 16.256 93.3429 16.128 93.8549 16.128C94.3749 16.128 94.7909 16.272 95.1029 16.56C95.4149 16.84 95.6069 17.204 95.6789 17.652C95.9589 17.156 96.2989 16.78 96.6989 16.524C97.0989 16.26 97.5549 16.128 98.0669 16.128C98.4269 16.128 98.7269 16.196 98.9669 16.332C99.2149 16.46 99.4109 16.644 99.5549 16.884C99.6989 17.116 99.8029 17.392 99.8669 17.712C99.9309 18.032 99.9629 18.38 99.9629 18.756V22.5Z" fill="#0A0E10"/>
<defs>
<clipPath id="clip0_91_528">
<rect width="20" height="20" fill="white" transform="translate(16 8)"/>
</clipPath>
</defs>
</svg>
