<svg width="125" height="32" viewBox="0 0 125 32" fill="none" xmlns="http://www.w3.org/2000/svg">
<rect width="125" height="32" fill="#88F2A2"/>
<g clip-path="url(#clip0_29_328)">
<path d="M26 7.80187C28.6701 7.80187 28.9863 7.81203 30.0408 7.86008C31.0158 7.90461 31.5453 8.0675 31.8977 8.20445C32.3645 8.38586 32.6976 8.60258 33.0475 8.9525C33.3975 9.30242 33.6141 9.63555 33.7955 10.1023C33.9325 10.4547 34.0954 10.9842 34.1399 11.9591C34.188 13.0137 34.1981 13.3299 34.1981 16C34.1981 18.6702 34.188 18.9864 34.1399 20.0409C34.0954 21.0159 33.9325 21.5453 33.7955 21.8977C33.6141 22.3645 33.3974 22.6977 33.0475 23.0476C32.6976 23.3975 32.3645 23.6142 31.8977 23.7955C31.5453 23.9325 31.0158 24.0955 30.0408 24.1399C28.9865 24.188 28.6702 24.1982 26 24.1982C23.3297 24.1982 23.0134 24.188 21.9591 24.1399C20.9841 24.0954 20.4547 23.9325 20.1023 23.7955C19.6355 23.6142 19.3023 23.3975 18.9524 23.0476C18.6025 22.6976 18.3858 22.3645 18.2045 21.8977C18.0675 21.5454 17.9045 21.0159 17.8601 20.0409C17.812 18.9864 17.8018 18.6702 17.8018 16C17.8018 13.3299 17.812 13.0137 17.8601 11.9592C17.9046 10.9842 18.0675 10.4547 18.2045 10.1023C18.3858 9.63555 18.6025 9.30242 18.9524 8.9525C19.3024 8.6025 19.6355 8.38586 20.1023 8.20445C20.4546 8.0675 20.9841 7.90461 21.9591 7.86008C23.0136 7.81203 23.3298 7.80187 26 7.80187ZM26 6C23.2841 6 22.9436 6.01148 21.877 6.06016C20.8126 6.10875 20.0856 6.27781 19.4496 6.525C18.792 6.78055 18.2343 7.1225 17.6784 7.67844C17.1224 8.23437 16.7805 8.79203 16.525 9.44961C16.2777 10.0857 16.1087 10.8127 16.0602 11.877C16.0115 12.9436 16 13.2841 16 16C16 18.7159 16.0115 19.0564 16.0602 20.123C16.1087 21.1874 16.2777 21.9144 16.525 22.5504C16.7805 23.208 17.1224 23.7657 17.6784 24.3216C18.2343 24.8776 18.792 25.2195 19.4496 25.475C20.0857 25.7223 20.8126 25.8912 21.877 25.9398C22.9436 25.9885 23.2841 26 26 26C28.7159 26 29.0564 25.9885 30.123 25.9398C31.1873 25.8912 31.9143 25.7223 32.5503 25.475C33.208 25.2195 33.7656 24.8776 34.3216 24.3216C34.8775 23.7657 35.2195 23.208 35.475 22.5504C35.7222 21.9143 35.8912 21.1874 35.9398 20.123C35.9885 19.0564 36 18.7159 36 16C36 13.2841 35.9885 12.9436 35.9398 11.877C35.8912 10.8127 35.7222 10.0857 35.475 9.44969C35.2195 8.79203 34.8775 8.23437 34.3216 7.67844C33.7656 7.1225 33.208 6.78047 32.5504 6.525C31.9143 6.27781 31.1873 6.10875 30.123 6.06016C29.0564 6.01148 28.7159 6 26 6ZM26 10.8648C23.1639 10.8648 20.8648 13.1641 20.8648 16C20.8648 18.8361 23.1639 21.1352 26 21.1352C28.836 21.1352 31.1352 18.8361 31.1352 16C31.1352 13.164 28.836 10.8648 26 10.8648ZM26 19.3334C24.1591 19.3334 22.6666 17.8409 22.6666 16C22.6666 14.1591 24.1591 12.6666 26 12.6666C27.8409 12.6666 29.3334 14.1591 29.3334 16C29.3334 17.8409 27.8409 19.3334 26 19.3334ZM32.538 10.662C32.538 11.3248 32.0008 11.862 31.338 11.862C30.6752 11.862 30.138 11.3248 30.138 10.662C30.138 9.99922 30.6752 9.46195 31.338 9.46195C32.0008 9.46195 32.538 9.99922 32.538 10.662Z" fill="#0D1117"/>
</g>
<path d="M45.08 20.5V19.18H46.844V13.06H45.08V11.74H50.12V13.06H48.356V19.18H50.12V20.5H45.08ZM52.0605 20.5V11.74H53.8965L56.3325 18.82C56.3085 18.564 56.2805 18.264 56.2485 17.92C56.2245 17.568 56.2045 17.212 56.1885 16.852C56.1725 16.484 56.1645 16.164 56.1645 15.892V11.74H57.5325V20.5H55.6965L53.2845 13.42C53.3005 13.652 53.3205 13.932 53.3445 14.26C53.3685 14.588 53.3885 14.924 53.4045 15.268C53.4205 15.612 53.4285 15.928 53.4285 16.216V20.5H52.0605ZM62.017 20.62C61.417 20.62 60.897 20.52 60.457 20.32C60.017 20.12 59.677 19.836 59.437 19.468C59.205 19.092 59.085 18.652 59.077 18.148H60.577C60.577 18.508 60.705 18.792 60.961 19C61.225 19.2 61.581 19.3 62.029 19.3C62.461 19.3 62.797 19.2 63.037 19C63.285 18.8 63.409 18.524 63.409 18.172C63.409 17.876 63.321 17.62 63.145 17.404C62.977 17.18 62.733 17.028 62.413 16.948L61.405 16.672C60.717 16.496 60.185 16.18 59.809 15.724C59.441 15.268 59.257 14.716 59.257 14.068C59.257 13.572 59.369 13.14 59.593 12.772C59.817 12.404 60.133 12.12 60.541 11.92C60.957 11.72 61.445 11.62 62.005 11.62C62.853 11.62 63.525 11.84 64.021 12.28C64.517 12.712 64.769 13.296 64.777 14.032H63.277C63.277 13.688 63.165 13.42 62.941 13.228C62.717 13.028 62.401 12.928 61.993 12.928C61.601 12.928 61.297 13.02 61.081 13.204C60.865 13.388 60.757 13.648 60.757 13.984C60.757 14.288 60.837 14.548 60.997 14.764C61.165 14.972 61.405 15.12 61.717 15.208L62.761 15.496C63.457 15.672 63.989 15.988 64.357 16.444C64.725 16.892 64.909 17.448 64.909 18.112C64.909 18.608 64.789 19.048 64.549 19.432C64.309 19.808 63.973 20.1 63.541 20.308C63.109 20.516 62.601 20.62 62.017 20.62ZM68.4335 20.5V13.132H66.1415V11.74H72.2375V13.132H69.9455V20.5H68.4335ZM73.2061 20.5L75.4141 11.74H77.3461L79.5661 20.5H78.0301L77.5501 18.376H75.2221L74.7421 20.5H73.2061ZM75.4981 17.152H77.2741L76.7461 14.8C76.6581 14.408 76.5821 14.056 76.5181 13.744C76.4541 13.424 76.4101 13.192 76.3861 13.048C76.3621 13.192 76.3181 13.424 76.2541 13.744C76.1981 14.056 76.1221 14.404 76.0261 14.788L75.4981 17.152ZM83.6306 20.62C83.0706 20.62 82.5786 20.516 82.1546 20.308C81.7386 20.092 81.4146 19.792 81.1826 19.408C80.9586 19.016 80.8466 18.556 80.8466 18.028V14.212C80.8466 13.676 80.9586 13.216 81.1826 12.832C81.4146 12.448 81.7386 12.152 82.1546 11.944C82.5786 11.728 83.0706 11.62 83.6306 11.62C84.1986 11.62 84.6866 11.728 85.0946 11.944C85.5106 12.152 85.8346 12.448 86.0666 12.832C86.2986 13.216 86.4146 13.676 86.4146 14.212H84.9026C84.9026 13.796 84.7906 13.48 84.5666 13.264C84.3506 13.048 84.0386 12.94 83.6306 12.94C83.2226 12.94 82.9066 13.048 82.6826 13.264C82.4586 13.48 82.3466 13.792 82.3466 14.2V18.028C82.3466 18.436 82.4586 18.752 82.6826 18.976C82.9066 19.2 83.2226 19.312 83.6306 19.312C84.0386 19.312 84.3506 19.2 84.5666 18.976C84.7906 18.752 84.9026 18.436 84.9026 18.028V17.14H83.4146V15.844H86.4146V18.028C86.4146 18.556 86.2986 19.016 86.0666 19.408C85.8346 19.792 85.5106 20.092 85.0946 20.308C84.6866 20.516 84.1986 20.62 83.6306 20.62ZM88.0911 20.5V11.74H90.8631C91.4471 11.74 91.9511 11.848 92.3751 12.064C92.8071 12.28 93.1431 12.584 93.3831 12.976C93.6231 13.36 93.7431 13.816 93.7431 14.344C93.7431 14.92 93.5951 15.428 93.2991 15.868C93.0111 16.308 92.6191 16.62 92.1231 16.804L93.8631 20.5H92.1831L90.6591 17.02H89.5911V20.5H88.0911ZM89.5911 15.7H90.8631C91.2871 15.7 91.6191 15.584 91.8591 15.352C92.0991 15.12 92.2191 14.8 92.2191 14.392C92.2191 13.976 92.0991 13.652 91.8591 13.42C91.6191 13.18 91.2871 13.06 90.8631 13.06H89.5911V15.7ZM94.7956 20.5L97.0036 11.74H98.9356L101.156 20.5H99.6196L99.1396 18.376H96.8116L96.3316 20.5H94.7956ZM97.0876 17.152H98.8636L98.3356 14.8C98.2476 14.408 98.1716 14.056 98.1076 13.744C98.0436 13.424 97.9996 13.192 97.9756 13.048C97.9516 13.192 97.9076 13.424 97.8436 13.744C97.7876 14.056 97.7116 14.404 97.6156 14.788L97.0876 17.152ZM102.244 20.5V11.74H104.02L104.872 14.524C104.96 14.804 105.032 15.06 105.088 15.292C105.144 15.524 105.18 15.692 105.196 15.796C105.212 15.692 105.248 15.524 105.304 15.292C105.36 15.06 105.428 14.804 105.508 14.524L106.324 11.74H108.1V20.5H106.696V17.776C106.696 17.376 106.708 16.94 106.732 16.468C106.756 15.996 106.784 15.524 106.816 15.052C106.848 14.58 106.884 14.132 106.924 13.708C106.972 13.284 107.012 12.912 107.044 12.592L105.868 16.732H104.5L103.288 12.592C103.328 12.896 103.368 13.256 103.408 13.672C103.448 14.08 103.484 14.52 103.516 14.992C103.556 15.456 103.588 15.928 103.612 16.408C103.636 16.888 103.648 17.344 103.648 17.776V20.5H102.244Z" fill="#0D1117"/>
<defs>
<clipPath id="clip0_29_328">
<rect width="20" height="20" fill="white" transform="translate(16 6)"/>
</clipPath>
</defs>
</svg>
