<svg width="169" height="52" viewBox="0 0 169 52" fill="none" xmlns="http://www.w3.org/2000/svg">
<rect x="0.5" y="0.5" width="168" height="51" rx="25.5" fill="url(#paint0_linear_112_98)"/>
<rect x="0.5" y="0.5" width="168" height="51" rx="25.5" stroke="url(#paint1_linear_112_98)"/>
<g clip-path="url(#clip0_112_98)">
<path d="M32 16.1622C35.2041 16.1622 35.5836 16.1744 36.8489 16.2321C38.0189 16.2855 38.6544 16.481 39.0773 16.6453C39.6373 16.863 40.0371 17.1231 40.457 17.543C40.877 17.9629 41.137 18.3627 41.3547 18.9227C41.519 19.3456 41.7145 19.9811 41.7679 21.151C41.8256 22.4164 41.8378 22.7959 41.8378 26C41.8378 29.2042 41.8256 29.5837 41.7679 30.849C41.7145 32.019 41.519 32.6544 41.3547 33.0773C41.137 33.6373 40.8769 34.0372 40.457 34.4571C40.0371 34.877 39.6373 35.1371 39.0773 35.3547C38.6544 35.519 38.0189 35.7146 36.8489 35.7679C35.5838 35.8257 35.2043 35.8378 32 35.8378C28.7956 35.8378 28.4161 35.8257 27.151 35.7679C25.981 35.7145 25.3456 35.519 24.9227 35.3547C24.3627 35.1371 23.9628 34.877 23.5429 34.4571C23.123 34.0371 22.8629 33.6373 22.6453 33.0773C22.481 32.6545 22.2854 32.019 22.2321 30.849C22.1743 29.5837 22.1622 29.2042 22.1622 26C22.1622 22.7959 22.1743 22.4164 22.2321 21.1511C22.2855 19.9811 22.481 19.3456 22.6453 18.9227C22.8629 18.3627 23.123 17.9629 23.5429 17.543C23.9629 17.123 24.3627 16.863 24.9227 16.6453C25.3455 16.481 25.981 16.2855 27.151 16.2321C28.4163 16.1744 28.7958 16.1622 32 16.1622ZM32 14C28.741 14 28.3323 14.0138 27.0524 14.0722C25.7751 14.1305 24.9027 14.3334 24.1395 14.63C23.3503 14.9367 22.6812 15.347 22.014 16.0141C21.3469 16.6812 20.9367 17.3504 20.63 18.1395C20.3333 18.9028 20.1305 19.7752 20.0722 21.0524C20.0138 22.3323 20 22.741 20 26C20 29.259 20.0138 29.6677 20.0722 30.9476C20.1305 32.2249 20.3333 33.0973 20.63 33.8605C20.9366 34.6496 21.3469 35.3188 22.014 35.986C22.6812 36.6531 23.3503 37.0633 24.1395 37.37C24.9028 37.6667 25.7751 37.8695 27.0523 37.9278C28.3323 37.9862 28.741 38 32 38C35.259 38 35.6677 37.9862 36.9476 37.9278C38.2248 37.8695 39.0972 37.6667 39.8604 37.37C40.6496 37.0634 41.3188 36.6531 41.9859 35.986C42.653 35.3188 43.0633 34.6497 43.37 33.8605C43.6666 33.0972 43.8695 32.2249 43.9278 30.9477C43.9862 29.6677 44 29.259 44 26C44 22.741 43.9862 22.3323 43.9278 21.0524C43.8695 19.7752 43.6666 18.9028 43.37 18.1396C43.0633 17.3504 42.653 16.6812 41.9859 16.0141C41.3188 15.347 40.6496 14.9366 39.8605 14.63C39.0972 14.3334 38.2248 14.1305 36.9476 14.0722C35.6677 14.0138 35.259 14 32 14ZM32 19.8378C28.5967 19.8378 25.8378 22.5969 25.8378 26C25.8378 29.4033 28.5967 32.1622 32 32.1622C35.4032 32.1622 38.1622 29.4033 38.1622 26C38.1622 22.5968 35.4032 19.8378 32 19.8378ZM32 30C29.7909 30 28 28.2091 28 26C28 23.7909 29.7909 22 32 22C34.2091 22 36 23.7909 36 26C36 28.2091 34.2091 30 32 30ZM39.8456 19.5943C39.8456 20.3897 39.2009 21.0343 38.4056 21.0343C37.6103 21.0343 36.9656 20.3897 36.9656 19.5943C36.9656 18.7991 37.6103 18.1543 38.4056 18.1543C39.2009 18.1543 39.8456 18.7991 39.8456 19.5943Z" fill="#DFDFDF"/>
</g>
<path d="M55.152 33V21.08H57.328V33H55.152ZM59.6223 33V21.08H61.3183L67.8783 29.912L66.9984 30.088V21.08H69.1744V33H67.4624L60.9983 24.104L61.7983 23.928V33H59.6223ZM75.7393 33.192C74.982 33.192 74.278 33.0533 73.6273 32.776C72.9873 32.4987 72.4327 32.1147 71.9633 31.624C71.5047 31.1227 71.1687 30.5413 70.9553 29.88L72.7633 29.096C73.0513 29.7787 73.4673 30.3173 74.0113 30.712C74.5553 31.096 75.1687 31.288 75.8513 31.288C76.2353 31.288 76.566 31.2293 76.8433 31.112C77.1313 30.984 77.35 30.8133 77.4993 30.6C77.6593 30.3867 77.7393 30.1307 77.7393 29.832C77.7393 29.48 77.6327 29.192 77.4193 28.968C77.2167 28.7333 76.9073 28.552 76.4913 28.424L74.2033 27.688C73.2753 27.4 72.5767 26.968 72.1073 26.392C71.638 25.816 71.4033 25.1387 71.4033 24.36C71.4033 23.6773 71.5687 23.0747 71.8993 22.552C72.2407 22.0293 72.71 21.624 73.3073 21.336C73.9153 21.0373 74.6087 20.888 75.3873 20.888C76.102 20.888 76.758 21.016 77.3553 21.272C77.9527 21.5173 78.4647 21.864 78.8913 22.312C79.3287 22.7493 79.654 23.2667 79.8673 23.864L78.0753 24.664C77.8407 24.0667 77.4887 23.608 77.0193 23.288C76.55 22.9573 76.006 22.792 75.3873 22.792C75.0247 22.792 74.7047 22.856 74.4273 22.984C74.15 23.1013 73.9313 23.272 73.7713 23.496C73.622 23.7093 73.5473 23.9653 73.5473 24.264C73.5473 24.5947 73.654 24.888 73.8673 25.144C74.0807 25.3893 74.406 25.5813 74.8433 25.72L77.0353 26.408C77.9847 26.7173 78.694 27.144 79.1633 27.688C79.6433 28.232 79.8833 28.904 79.8833 29.704C79.8833 30.3867 79.7073 30.9893 79.3553 31.512C79.0033 32.0347 78.518 32.4453 77.8993 32.744C77.2807 33.0427 76.5607 33.192 75.7393 33.192ZM83.9563 33V23H80.8683V21.08H89.1883V23H86.1483V33H83.9563ZM88.7449 33L92.8569 21.08H95.6729L99.7849 33H97.4169L96.5689 30.44H91.9609L91.0969 33H88.7449ZM92.5849 28.52H95.9449L93.9609 22.584H94.5689L92.5849 28.52ZM106.277 33.192C105.423 33.192 104.634 33.0373 103.909 32.728C103.183 32.4187 102.549 31.9867 102.005 31.432C101.461 30.8773 101.034 30.2267 100.725 29.48C100.426 28.7333 100.277 27.9173 100.277 27.032C100.277 26.1467 100.421 25.3307 100.709 24.584C101.007 23.8267 101.423 23.176 101.957 22.632C102.501 22.0773 103.135 21.6507 103.861 21.352C104.586 21.0427 105.375 20.888 106.229 20.888C107.082 20.888 107.845 21.032 108.517 21.32C109.199 21.608 109.775 21.992 110.245 22.472C110.714 22.9413 111.05 23.4587 111.253 24.024L109.317 24.952C109.093 24.3333 108.714 23.832 108.181 23.448C107.647 23.064 106.997 22.872 106.229 22.872C105.482 22.872 104.821 23.048 104.245 23.4C103.679 23.752 103.237 24.2373 102.917 24.856C102.607 25.4747 102.453 26.2 102.453 27.032C102.453 27.864 102.613 28.5947 102.933 29.224C103.263 29.8427 103.717 30.328 104.293 30.68C104.869 31.032 105.53 31.208 106.277 31.208C106.885 31.208 107.445 31.0907 107.957 30.856C108.469 30.6107 108.879 30.2693 109.189 29.832C109.498 29.384 109.653 28.856 109.653 28.248V27.336L110.645 28.2H106.229V26.36H111.829V27.56C111.829 28.4773 111.674 29.288 111.365 29.992C111.055 30.696 110.634 31.288 110.101 31.768C109.578 32.2373 108.986 32.5947 108.325 32.84C107.663 33.0747 106.981 33.192 106.277 33.192ZM113.552 33V21.08H117.984C118.795 21.08 119.51 21.2293 120.128 21.528C120.758 21.816 121.248 22.2427 121.6 22.808C121.952 23.3627 122.128 24.04 122.128 24.84C122.128 25.6613 121.931 26.36 121.536 26.936C121.152 27.512 120.63 27.9387 119.968 28.216L122.704 33H120.24L117.312 27.768L118.72 28.6H115.728V33H113.552ZM115.728 26.68H118.016C118.411 26.68 118.752 26.6053 119.04 26.456C119.328 26.296 119.552 26.0773 119.712 25.8C119.872 25.5227 119.952 25.2027 119.952 24.84C119.952 24.4667 119.872 24.1467 119.712 23.88C119.552 23.6027 119.328 23.3893 119.04 23.24C118.752 23.08 118.411 23 118.016 23H115.728V26.68ZM123.156 33L127.268 21.08H130.084L134.196 33H131.828L130.98 30.44H126.372L125.508 33H123.156ZM126.996 28.52H130.356L128.372 22.584H128.98L126.996 28.52ZM135.524 33V21.08H137.604L142.068 27.144H141.076L145.444 21.08H147.524V33H145.332V23.56L146.18 23.768L141.652 29.8H141.396L136.98 23.768L137.7 23.56V33H135.524Z" fill="#DFDFDF"/>
<defs>
<linearGradient id="paint0_linear_112_98" x1="0" y1="26" x2="169" y2="26" gradientUnits="userSpaceOnUse">
<stop stop-color="#8843F6"/>
<stop offset="1" stop-color="#33076A"/>
</linearGradient>
<linearGradient id="paint1_linear_112_98" x1="81.4821" y1="1.58135e-07" x2="102.904" y2="50.9229" gradientUnits="userSpaceOnUse">
<stop stop-color="#5D13B7"/>
<stop offset="0.331731" stop-opacity="0"/>
<stop offset="0.665865" stop-opacity="0"/>
<stop offset="1" stop-color="#5D13B7"/>
</linearGradient>
<clipPath id="clip0_112_98">
<rect width="24" height="24" fill="white" transform="translate(20 14)"/>
</clipPath>
</defs>
</svg>
