<svg width="118" height="32" viewBox="0 0 118 32" fill="none" xmlns="http://www.w3.org/2000/svg">
<rect width="118" height="32" fill="#88F2A2"/>
<g clip-path="url(#clip0_29_333)">
<path d="M33.0409 23.0412H30.0776V18.4004C30.0776 17.2937 30.0578 15.8691 28.5363 15.8691C26.9929 15.8691 26.7567 17.0749 26.7567 18.3198V23.0409H23.7934V13.4975H26.6382V14.8017H26.678C26.9627 14.3149 27.3741 13.9144 27.8684 13.643C28.3627 13.3715 28.9214 13.2391 29.4849 13.26C32.4884 13.26 33.0422 15.2357 33.0422 17.8058L33.0409 23.0412ZM20.4497 12.193C19.4999 12.1932 18.7298 11.4233 18.7297 10.4736C18.7295 9.5238 19.4993 8.75372 20.4491 8.75356C21.3988 8.75333 22.1689 9.52317 22.1691 10.4729C22.1691 10.929 21.988 11.3665 21.6656 11.6891C21.3432 12.0116 20.9058 12.1929 20.4497 12.193ZM21.9314 23.0413H18.9649V13.4975H21.9313V23.0412L21.9314 23.0413ZM34.5183 6.00146H17.4759C16.6704 5.99239 16.0098 6.63763 16 7.4431V24.5566C16.0095 25.3625 16.67 26.0083 17.4758 25.9999H34.5183C35.3258 26.0099 35.9888 25.364 36 24.5566V7.44177C35.9885 6.63474 35.3254 5.98958 34.5183 6.00013" fill="#0D1117"/>
</g>
<path d="M45.236 20.5V11.74H46.736V19.108H50.456V20.5H45.236ZM52.2765 20.5V19.18H54.0405V13.06H52.2765V11.74H57.3165V13.06H55.5525V19.18H57.3165V20.5H52.2765ZM59.257 20.5V11.74H61.093L63.529 18.82C63.505 18.564 63.477 18.264 63.445 17.92C63.421 17.568 63.401 17.212 63.385 16.852C63.369 16.484 63.361 16.164 63.361 15.892V11.74H64.729V20.5H62.893L60.481 13.42C60.497 13.652 60.517 13.932 60.541 14.26C60.565 14.588 60.585 14.924 60.601 15.268C60.617 15.612 60.625 15.928 60.625 16.216V20.5H59.257ZM66.5015 20.5V11.74H68.0015V15.28H69.0455L70.6895 11.74H72.3215L70.3655 15.94L72.4175 20.5H70.7495L69.0215 16.648H68.0015V20.5H66.5015ZM73.8421 20.5V11.74H79.0981V13.048H75.3181V15.328H78.6781V16.624H75.3181V19.192H79.0981V20.5H73.8421ZM80.8826 20.5V11.74H83.4866C84.0786 11.74 84.5906 11.852 85.0226 12.076C85.4626 12.3 85.8026 12.616 86.0426 13.024C86.2826 13.432 86.4026 13.916 86.4026 14.476V17.752C86.4026 18.304 86.2826 18.788 86.0426 19.204C85.8026 19.612 85.4626 19.932 85.0226 20.164C84.5906 20.388 84.0786 20.5 83.4866 20.5H80.8826ZM82.3826 19.12H83.4866C83.9186 19.12 84.2626 19 84.5186 18.76C84.7746 18.512 84.9026 18.176 84.9026 17.752V14.476C84.9026 14.06 84.7746 13.732 84.5186 13.492C84.2626 13.244 83.9186 13.12 83.4866 13.12H82.3826V19.12ZM88.2591 20.5V19.18H90.0231V13.06H88.2591V11.74H93.2991V13.06H91.5351V19.18H93.2991V20.5H88.2591ZM95.2396 20.5V11.74H97.0756L99.5116 18.82C99.4876 18.564 99.4596 18.264 99.4276 17.92C99.4036 17.568 99.3836 17.212 99.3676 16.852C99.3516 16.484 99.3436 16.164 99.3436 15.892V11.74H100.712V20.5H98.8756L96.4636 13.42C96.4796 13.652 96.4996 13.932 96.5236 14.26C96.5476 14.588 96.5676 14.924 96.5836 15.268C96.5996 15.612 96.6076 15.928 96.6076 16.216V20.5H95.2396Z" fill="#0D1117"/>
<defs>
<clipPath id="clip0_29_333">
<rect width="20" height="20" fill="white" transform="translate(16 6)"/>
</clipPath>
</defs>
</svg>
