<svg width="108" height="36" viewBox="0 0 108 36" fill="none" xmlns="http://www.w3.org/2000/svg">
<rect width="108" height="36" rx="4" fill="#9F06FF"/>
<g clip-path="url(#clip0_91_518)">
<path d="M33.0409 25.0412H30.0776V20.4004C30.0776 19.2937 30.0578 17.8691 28.5363 17.8691C26.9929 17.8691 26.7567 19.0749 26.7567 20.3198V25.0409H23.7934V15.4975H26.6382V16.8017H26.678C26.9627 16.3149 27.3741 15.9144 27.8684 15.643C28.3627 15.3715 28.9214 15.2391 29.4849 15.26C32.4884 15.26 33.0422 17.2357 33.0422 19.8058L33.0409 25.0412ZM20.4497 14.193C19.4999 14.1932 18.7298 13.4233 18.7297 12.4736C18.7295 11.5238 19.4993 10.7537 20.4491 10.7536C21.3988 10.7533 22.1689 11.5232 22.1691 12.4729C22.1691 12.929 21.988 13.3665 21.6656 13.6891C21.3432 14.0116 20.9058 14.1929 20.4497 14.193ZM21.9314 25.0413H18.9649V15.4975H21.9313V25.0412L21.9314 25.0413ZM34.5183 8.00146H17.4759C16.6704 7.99239 16.0098 8.63763 16 9.4431V26.5566C16.0095 27.3625 16.67 28.0083 17.4758 27.9999H34.5183C35.3258 28.0099 35.9888 27.364 36 26.5566V9.44177C35.9885 8.63474 35.3254 7.98958 34.5183 8.00013" fill="#0A0E10"/>
</g>
<path d="M45.1037 22.5V13.98H46.1837V21.54H50.9357V22.5H45.1037ZM51.9447 22.5V16.236H53.0007V22.5H51.9447ZM51.9447 15.06V13.74H53.0007V15.06H51.9447ZM60.1475 22.5H59.0915V18.996C59.0915 18.332 58.9875 17.848 58.7795 17.544C58.5795 17.232 58.2715 17.076 57.8555 17.076C57.5675 17.076 57.2795 17.148 56.9915 17.292C56.7115 17.436 56.4595 17.632 56.2355 17.88C56.0195 18.12 55.8635 18.4 55.7675 18.72V22.5H54.7115V16.236H55.6715V17.58C55.8395 17.284 56.0555 17.028 56.3195 16.812C56.5835 16.596 56.8835 16.428 57.2195 16.308C57.5555 16.188 57.9075 16.128 58.2755 16.128C58.6355 16.128 58.9355 16.196 59.1755 16.332C59.4235 16.46 59.6155 16.644 59.7515 16.884C59.8955 17.116 59.9955 17.392 60.0515 17.712C60.1155 18.032 60.1475 18.38 60.1475 18.756V22.5ZM66.2069 22.5L64.0349 19.452L62.8469 20.568V22.5H61.7909V13.74H62.8469V19.464L66.0869 16.248H67.2269L64.7309 18.84L67.3469 22.5H66.2069ZM70.7047 22.62C70.2327 22.62 69.8007 22.536 69.4087 22.368C69.0247 22.192 68.6887 21.956 68.4007 21.66C68.1207 21.356 67.9007 21.008 67.7407 20.616C67.5887 20.224 67.5127 19.808 67.5127 19.368C67.5127 18.776 67.6487 18.236 67.9207 17.748C68.1927 17.26 68.5687 16.868 69.0487 16.572C69.5367 16.276 70.0927 16.128 70.7167 16.128C71.3487 16.128 71.8967 16.28 72.3607 16.584C72.8327 16.88 73.1967 17.272 73.4527 17.76C73.7167 18.24 73.8487 18.76 73.8487 19.32C73.8487 19.4 73.8447 19.48 73.8367 19.56C73.8367 19.632 73.8327 19.688 73.8247 19.728H68.6287C68.6607 20.136 68.7727 20.5 68.9647 20.82C69.1647 21.132 69.4207 21.38 69.7327 21.564C70.0447 21.74 70.3807 21.828 70.7407 21.828C71.1247 21.828 71.4847 21.732 71.8207 21.54C72.1647 21.348 72.4007 21.096 72.5287 20.784L73.4407 21.036C73.3047 21.34 73.1007 21.612 72.8287 21.852C72.5647 22.092 72.2487 22.28 71.8807 22.416C71.5207 22.552 71.1287 22.62 70.7047 22.62ZM68.5927 18.996H72.8647C72.8327 18.588 72.7167 18.228 72.5167 17.916C72.3167 17.604 72.0607 17.36 71.7487 17.184C71.4367 17.008 71.0927 16.92 70.7167 16.92C70.3487 16.92 70.0087 17.008 69.6967 17.184C69.3847 17.36 69.1287 17.604 68.9287 17.916C68.7367 18.228 68.6247 18.588 68.5927 18.996ZM74.6157 19.38C74.6157 18.788 74.7357 18.248 74.9757 17.76C75.2237 17.264 75.5597 16.868 75.9837 16.572C76.4157 16.276 76.9077 16.128 77.4597 16.128C77.9637 16.128 78.4157 16.26 78.8157 16.524C79.2157 16.788 79.5277 17.108 79.7517 17.484V13.74H80.8077V21.3C80.8077 21.428 80.8317 21.524 80.8797 21.588C80.9357 21.644 81.0237 21.676 81.1437 21.684V22.5C80.9437 22.532 80.7877 22.548 80.6757 22.548C80.4677 22.548 80.2837 22.476 80.1237 22.332C79.9717 22.188 79.8957 22.028 79.8957 21.852V21.324C79.6477 21.724 79.3157 22.04 78.8997 22.272C78.4837 22.504 78.0517 22.62 77.6037 22.62C77.1717 22.62 76.7717 22.536 76.4037 22.368C76.0437 22.192 75.7277 21.952 75.4557 21.648C75.1917 21.344 74.9837 21 74.8317 20.616C74.6877 20.224 74.6157 19.812 74.6157 19.38ZM79.7517 20.304V18.504C79.6557 18.232 79.4997 17.988 79.2837 17.772C79.0677 17.548 78.8237 17.372 78.5517 17.244C78.2877 17.108 78.0237 17.04 77.7597 17.04C77.4477 17.04 77.1637 17.108 76.9077 17.244C76.6597 17.372 76.4437 17.548 76.2597 17.772C76.0837 17.988 75.9477 18.236 75.8517 18.516C75.7557 18.796 75.7077 19.088 75.7077 19.392C75.7077 19.704 75.7597 20 75.8637 20.28C75.9757 20.56 76.1277 20.808 76.3197 21.024C76.5197 21.24 76.7477 21.408 77.0037 21.528C77.2677 21.648 77.5517 21.708 77.8557 21.708C78.0477 21.708 78.2437 21.672 78.4437 21.6C78.6517 21.528 78.8477 21.428 79.0317 21.3C79.2157 21.172 79.3717 21.024 79.4997 20.856C79.6277 20.68 79.7117 20.496 79.7517 20.304ZM82.7398 22.5V13.98H83.8198V22.5H82.7398ZM91.1262 22.5H90.0702V18.996C90.0702 18.332 89.9662 17.848 89.7582 17.544C89.5582 17.232 89.2502 17.076 88.8342 17.076C88.5462 17.076 88.2582 17.148 87.9702 17.292C87.6902 17.436 87.4382 17.632 87.2142 17.88C86.9982 18.12 86.8422 18.4 86.7462 18.72V22.5H85.6902V16.236H86.6502V17.58C86.8182 17.284 87.0342 17.028 87.2982 16.812C87.5622 16.596 87.8622 16.428 88.1982 16.308C88.5342 16.188 88.8862 16.128 89.2542 16.128C89.6142 16.128 89.9142 16.196 90.1542 16.332C90.4022 16.46 90.5942 16.644 90.7302 16.884C90.8742 17.116 90.9742 17.392 91.0302 17.712C91.0942 18.032 91.1262 18.38 91.1262 18.756V22.5Z" fill="#0A0E10"/>
<defs>
<clipPath id="clip0_91_518">
<rect width="20" height="20" fill="white" transform="translate(16 8)"/>
</clipPath>
</defs>
</svg>
