<svg width="148" height="52" viewBox="0 0 148 52" fill="none" xmlns="http://www.w3.org/2000/svg">
<rect x="0.5" y="0.5" width="147" height="51" rx="25.5" fill="url(#paint0_linear_112_104)"/>
<rect x="0.5" y="0.5" width="147" height="51" rx="25.5" stroke="url(#paint1_linear_112_104)"/>
<g clip-path="url(#clip0_112_104)">
<path d="M40.4491 34.449H36.8931V28.8799C36.8931 27.552 36.8694 25.8424 35.0436 25.8424C33.1915 25.8424 32.9081 27.2894 32.9081 28.7833V34.4486H29.3521V22.9965H32.7658V24.5615H32.8137C33.1553 23.9774 33.649 23.4968 34.2421 23.1711C34.8353 22.8453 35.5057 22.6865 36.1819 22.7116C39.7861 22.7116 40.4506 25.0823 40.4506 28.1665L40.4491 34.449ZM25.3396 21.4311C24.1999 21.4313 23.2758 20.5075 23.2756 19.3678C23.2754 18.2281 24.1992 17.304 25.3389 17.3038C26.4786 17.3035 27.4027 18.2273 27.4029 19.367C27.403 19.9144 27.1857 20.4393 26.7987 20.8264C26.4118 21.2135 25.8869 21.431 25.3396 21.4311ZM27.1177 34.4491H23.5579V22.9965H27.1176V34.449L27.1177 34.4491ZM42.2219 14.0013H21.771C20.8045 13.9904 20.0118 14.7647 20 15.7312V36.2674C20.0114 37.2345 20.804 38.0095 21.7709 37.9994H42.2219C43.1909 38.0114 43.9866 37.2364 44 36.2674V15.7296C43.9862 14.7612 43.1905 13.987 42.2219 13.9997" fill="#DFDFDF"/>
</g>
<path d="M55.152 33V21.08H57.328V31.08H62.432V33H55.152ZM63.8411 33V21.08H66.0171V33H63.8411ZM68.3114 33V21.08H70.0074L76.5674 29.912L75.6875 30.088V21.08H77.8635V33H76.1515L69.6874 24.104L70.4874 23.928V33H68.3114ZM80.1724 33V21.08H82.3484V27.288L81.7564 27.08L86.8284 21.08H89.5644L84.8124 26.712L84.9404 25.176L89.7084 33H87.1484L83.9484 27.752L82.3484 29.656V33H80.1724ZM91.0334 33V21.08H98.9534V23H93.2094V26.056H98.6334V27.976H93.2094V31.08H98.9534V33H91.0334ZM100.551 33V21.08H104.439C105.697 21.08 106.791 21.336 107.719 21.848C108.657 22.3493 109.383 23.048 109.895 23.944C110.407 24.8293 110.663 25.8587 110.663 27.032C110.663 28.1947 110.407 29.2293 109.895 30.136C109.383 31.032 108.657 31.736 107.719 32.248C106.791 32.7493 105.697 33 104.439 33H100.551ZM102.727 31.08H104.487C105.297 31.08 105.996 30.9147 106.583 30.584C107.18 30.2427 107.644 29.7733 107.975 29.176C108.305 28.568 108.471 27.8533 108.471 27.032C108.471 26.2 108.305 25.4853 107.975 24.888C107.644 24.2907 107.18 23.8267 106.583 23.496C105.996 23.1653 105.297 23 104.487 23H102.727V31.08ZM112.396 33V21.08H114.572V33H112.396ZM116.866 33V21.08H118.562L125.122 29.912L124.242 30.088V21.08H126.418V33H124.706L118.242 24.104L119.042 23.928V33H116.866Z" fill="#DFDFDF"/>
<defs>
<linearGradient id="paint0_linear_112_104" x1="0" y1="26" x2="148" y2="26" gradientUnits="userSpaceOnUse">
<stop stop-color="#8843F6"/>
<stop offset="1" stop-color="#33076A"/>
</linearGradient>
<linearGradient id="paint1_linear_112_104" x1="71.3571" y1="1.58135e-07" x2="94.7497" y2="48.6976" gradientUnits="userSpaceOnUse">
<stop stop-color="#5D13B7"/>
<stop offset="0.331731" stop-opacity="0"/>
<stop offset="0.665865" stop-opacity="0"/>
<stop offset="1" stop-color="#5D13B7"/>
</linearGradient>
<clipPath id="clip0_112_104">
<rect width="24" height="24" fill="white" transform="translate(20 14)"/>
</clipPath>
</defs>
</svg>
