<svg width="48" height="48" viewBox="0 0 48 48" fill="none" xmlns="http://www.w3.org/2000/svg">
<rect x="0.648649" y="0.648649" width="46.7027" height="46.7027" rx="4.54054" fill="black"/>
<rect x="0.648649" y="0.648649" width="46.7027" height="46.7027" rx="4.54054" stroke="#88F2A2" stroke-width="1.2973"/>
<path d="M19.1843 34L20.0769 31.5319L8.66064 25.8511V23.4468L17.7521 18.9149V21.1277L11.5458 24.1489C11.2968 24.2766 11.0615 24.383 10.8401 24.4681C10.6049 24.5532 10.425 24.6099 10.3004 24.6383C10.425 24.6667 10.6049 24.7234 10.8401 24.8085C11.0615 24.8794 11.2968 24.9787 11.5458 25.1064L20.7618 29.6809L26.4907 14H28.8155L27.5493 17.5106L39.3391 23.4468V25.8511L30.2477 30.383V28.2128L36.4539 25.1702C36.7307 25.0426 36.9936 24.9362 37.2427 24.8511C37.4918 24.766 37.6786 24.7092 37.8031 24.6809C37.6648 24.6525 37.4641 24.5957 37.2012 24.5106C36.9521 24.4113 36.703 24.2979 36.4539 24.1702L26.8643 19.383L21.5091 34H19.1843Z" fill="#88F2A2"/>
</svg>
