<svg width="123" height="123" viewBox="0 0 123 123" fill="none" xmlns="http://www.w3.org/2000/svg">
<rect width="122.51" height="122.51" rx="4" fill="#0A0E10"/>
<path fill-rule="evenodd" clip-rule="evenodd" d="M38.6275 56.7297L34.1018 61.2551L38.6275 65.7805L43.1529 70.3062L47.6737 74.8266L47.6788 74.8317L52.2041 79.3571L56.7295 74.8317L61.2552 70.3063L65.7806 74.8317L70.3059 79.3571L74.8316 74.8317L79.357 70.3063L83.8824 65.7806L88.4081 61.2553L83.8824 56.7299L79.357 61.2552L74.8316 65.7806L70.3059 70.3063L65.7806 65.7806L61.2552 61.2553L56.7295 65.7806L52.2041 70.3063L47.6788 65.7806L47.6768 65.7823L47.6768 65.7787L43.1528 61.255L38.6275 56.7297Z" fill="#9F06FF"/>
<path fill-rule="evenodd" clip-rule="evenodd" d="M61.255 34.1022L56.7293 38.6276L52.204 43.1533L56.7294 47.6787L61.255 52.204L65.7804 47.6787L70.3058 43.1533L65.7804 38.6276L61.255 34.1022Z" fill="#9F06FF"/>
<path fill-rule="evenodd" clip-rule="evenodd" d="M74.8315 29.5767L74.8315 38.6274L79.3569 43.1531L83.8823 47.6785L88.408 52.2038L92.9334 56.7295L97.4587 61.2549L92.9333 65.7803L88.408 70.306L83.8823 74.8313L79.3569 79.3567L74.8315 83.8824L74.8315 92.9332L79.3569 88.4078L83.8823 83.8824L88.408 79.3567L92.9334 74.8313L97.4587 70.306L101.984 65.7803L101.984 56.7295L97.4587 52.2038L92.9333 47.6785L88.408 43.1531L83.8823 38.6274L79.3569 34.102L74.8315 29.5767Z" fill="#9F06FF"/>
<path fill-rule="evenodd" clip-rule="evenodd" d="M47.6787 29.5762L43.1533 34.1019L38.628 38.6272L34.1023 43.1529L29.5769 47.6783L25.0515 52.2037L20.5258 56.7294L20.5258 65.7801L25.0515 70.3058L29.5769 74.8312L34.1026 79.3566L38.628 83.8823L43.1533 88.4076L47.6675 92.9214L47.6707 83.8905L47.6707 83.874L43.1532 79.3566L38.6279 74.8313L34.1025 70.3059L29.5768 65.7802L25.0514 61.2548L29.5768 56.7294L34.1022 52.2037L38.6279 47.6784L43.1532 43.153L47.6786 38.6273L47.6869 38.619L47.6901 29.5878L47.6787 29.5762Z" fill="#9F06FF"/>
</svg>
