<svg width="382" height="332" viewBox="0 0 382 332" fill="none" xmlns="http://www.w3.org/2000/svg">
<path d="M344.405 138.633L366.307 160.563C383.231 177.51 383.231 204.985 366.307 221.932L272.076 316.288C255.15 333.237 227.705 333.237 210.778 316.288L191 296.482L171.222 316.288C154.295 333.237 126.85 333.237 109.924 316.288L15.6934 221.932C-1.23086 204.985 -1.23085 177.51 15.6934 160.563L37.5947 138.633L39.7178 136.507L41.8398 138.633L115.358 212.249L160.352 167.197C177.278 150.248 204.722 150.248 221.648 167.197L266.641 212.249L340.16 138.633L342.282 136.507L344.405 138.633ZM160.352 15.7119C177.278 -1.23711 204.723 -1.23716 221.649 15.7119L268.765 62.8896L270.881 65.0098L268.765 67.1299L221.649 114.309C204.723 131.258 177.278 131.257 160.352 114.309L113.236 67.1299L111.119 65.0098L113.236 62.8896L160.352 15.7119Z" fill="url(#paint0_linear_111_78)" stroke="#7B3FDB" stroke-width="6"/>
<defs>
<linearGradient id="paint0_linear_111_78" x1="191" y1="6" x2="191" y2="326" gradientUnits="userSpaceOnUse">
<stop stop-color="#5D13B7"/>
<stop offset="1" stop-color="#1F0345"/>
</linearGradient>
</defs>
</svg>
