<svg width="180" height="180" viewBox="0 0 180 180" fill="none" xmlns="http://www.w3.org/2000/svg">
<rect width="180" height="180" fill="#0A0E10"/>
<path fill-rule="evenodd" clip-rule="evenodd" d="M56.7537 83.3512L50.1042 90.0002L56.7538 96.6493L63.4027 103.299L70.045 109.94L70.0525 109.948L76.7015 116.597L83.3505 109.948L90 103.299L96.649 109.948L103.298 116.597L109.948 109.948L116.597 103.299L123.246 96.6495L129.895 90.0005L123.246 83.3515L116.597 90.0005L109.947 96.6495L103.298 103.299L96.649 96.6495L90 90.0005L83.3505 96.6495L76.7015 103.299L70.0525 96.6495L70.0496 96.6519L70.0496 96.6466L63.4026 90L56.7537 83.3512Z" fill="#9F06FF"/>
<path fill-rule="evenodd" clip-rule="evenodd" d="M89.9998 50.1052L83.3503 56.7542L76.7013 63.4037L83.3503 70.0527L89.9998 76.7017L96.6488 70.0527L103.298 63.4037L96.6488 56.7542L89.9998 50.1052Z" fill="#9F06FF"/>
<path fill-rule="evenodd" clip-rule="evenodd" d="M109.947 43.4561L109.947 56.7541L116.596 63.4036L123.245 70.0526L129.895 76.7016L136.544 83.3511L143.193 90.0001L136.544 96.6491L129.895 103.299L123.245 109.948L116.596 116.597L109.947 123.246L109.947 136.544L116.596 129.895L123.245 123.246L129.895 116.597L136.544 109.948L143.193 103.299L149.842 96.6491L149.842 83.3511L143.193 76.7016L136.544 70.0526L129.895 63.4036L123.245 56.7541L116.596 50.1051L109.947 43.4561Z" fill="#9F06FF"/>
<path fill-rule="evenodd" clip-rule="evenodd" d="M70.0522 43.4556L63.4032 50.1051L56.7542 56.7541L50.1047 63.4036L43.4557 70.0526L36.8067 76.7016L30.1572 83.3511L30.1572 96.6491L36.8067 103.299L43.4557 109.948L50.1052 116.597L56.7542 123.246L63.4032 129.895L70.0357 136.527L70.0404 123.258L70.0404 123.234L63.4031 116.597L56.7541 109.948L50.1051 103.299L43.4556 96.6492L36.8066 90.0002L43.4556 83.3512L50.1046 76.7017L56.7541 70.0527L63.4031 63.4037L70.0521 56.7542L70.0642 56.742L70.0689 43.4727L70.0522 43.4556Z" fill="#9F06FF"/>
</svg>
