<svg width="219" height="52" viewBox="0 0 219 52" fill="none" xmlns="http://www.w3.org/2000/svg">
<rect x="0.5" y="0.5" width="218" height="51" rx="25.5" fill="url(#paint0_linear_112_110)"/>
<rect x="0.5" y="0.5" width="218" height="51" rx="25.5" stroke="url(#paint1_linear_112_110)"/>
<g clip-path="url(#clip0_112_110)">
<path d="M36.5603 35.405V29.5674H39.1085V37.9993H20V29.5674H22.5482V35.405H36.5603Z" fill="#DFDFDF"/>
<path d="M33.7717 30.8645L34.2811 28.9183L24.0258 26.7788L23.5801 28.9183L33.7717 30.8645ZM24.9821 23.8594L34.5358 28.3999L35.4273 26.4536L25.8736 21.9143L24.9821 23.8594ZM27.6565 19.0596L35.682 25.9352L37.0203 24.3141L28.9312 17.4385L27.5928 19.0596H27.6565ZM32.8166 14.0007L31.0961 15.2979L37.4024 23.9241L39.1216 22.627L32.8166 14.0007ZM23.5801 33.4588H33.7717V31.5137H23.5801V33.4588Z" fill="#DFDFDF"/>
</g>
<path d="M55.408 33.192C54.6507 33.192 53.9467 33.0533 53.296 32.776C52.656 32.4987 52.1013 32.1147 51.632 31.624C51.1733 31.1227 50.8373 30.5413 50.624 29.88L52.432 29.096C52.72 29.7787 53.136 30.3173 53.68 30.712C54.224 31.096 54.8373 31.288 55.52 31.288C55.904 31.288 56.2347 31.2293 56.512 31.112C56.8 30.984 57.0187 30.8133 57.168 30.6C57.328 30.3867 57.408 30.1307 57.408 29.832C57.408 29.48 57.3013 29.192 57.088 28.968C56.8853 28.7333 56.576 28.552 56.16 28.424L53.872 27.688C52.944 27.4 52.2453 26.968 51.776 26.392C51.3067 25.816 51.072 25.1387 51.072 24.36C51.072 23.6773 51.2373 23.0747 51.568 22.552C51.9093 22.0293 52.3787 21.624 52.976 21.336C53.584 21.0373 54.2773 20.888 55.056 20.888C55.7707 20.888 56.4267 21.016 57.024 21.272C57.6213 21.5173 58.1333 21.864 58.56 22.312C58.9973 22.7493 59.3227 23.2667 59.536 23.864L57.744 24.664C57.5093 24.0667 57.1573 23.608 56.688 23.288C56.2187 22.9573 55.6747 22.792 55.056 22.792C54.6933 22.792 54.3733 22.856 54.096 22.984C53.8187 23.1013 53.6 23.272 53.44 23.496C53.2907 23.7093 53.216 23.9653 53.216 24.264C53.216 24.5947 53.3227 24.888 53.536 25.144C53.7493 25.3893 54.0747 25.5813 54.512 25.72L56.704 26.408C57.6533 26.7173 58.3627 27.144 58.832 27.688C59.312 28.232 59.552 28.904 59.552 29.704C59.552 30.3867 59.376 30.9893 59.024 31.512C58.672 32.0347 58.1867 32.4453 57.568 32.744C56.9493 33.0427 56.2293 33.192 55.408 33.192ZM63.625 33V23H60.537V21.08H68.857V23H65.817V33H63.625ZM68.4136 33L72.5256 21.08H75.3416L79.4536 33H77.0856L76.2376 30.44H71.6296L70.7656 33H68.4136ZM72.2536 28.52H75.6136L73.6296 22.584H74.2376L72.2536 28.52ZM85.8974 33.192C85.0441 33.192 84.2548 33.0373 83.5294 32.728C82.8148 32.4187 82.1854 31.9867 81.6414 31.432C81.1081 30.8773 80.6921 30.2267 80.3934 29.48C80.0948 28.7333 79.9454 27.9173 79.9454 27.032C79.9454 26.1467 80.0894 25.3307 80.3774 24.584C80.6761 23.8267 81.0921 23.176 81.6254 22.632C82.1694 22.0773 82.8041 21.6507 83.5294 21.352C84.2548 21.0427 85.0441 20.888 85.8974 20.888C86.7508 20.888 87.5134 21.032 88.1854 21.32C88.8681 21.608 89.4441 21.992 89.9134 22.472C90.3828 22.9413 90.7188 23.4587 90.9214 24.024L88.9694 24.936C88.7454 24.3387 88.3668 23.848 87.8334 23.464C87.3001 23.0693 86.6548 22.872 85.8974 22.872C85.1508 22.872 84.4894 23.048 83.9134 23.4C83.3481 23.752 82.9054 24.2373 82.5854 24.856C82.2761 25.4747 82.1214 26.2 82.1214 27.032C82.1214 27.864 82.2761 28.5947 82.5854 29.224C82.9054 29.8427 83.3481 30.328 83.9134 30.68C84.4894 31.032 85.1508 31.208 85.8974 31.208C86.6548 31.208 87.3001 31.016 87.8334 30.632C88.3668 30.2373 88.7454 29.7413 88.9694 29.144L90.9214 30.056C90.7188 30.6213 90.3828 31.144 89.9134 31.624C89.4441 32.0933 88.8681 32.472 88.1854 32.76C87.5134 33.048 86.7508 33.192 85.8974 33.192ZM92.6897 33V21.08H94.8657V27.288L94.2737 27.08L99.3457 21.08H102.082L97.3297 26.712L97.4577 25.176L102.226 33H99.6657L96.4657 27.752L94.8657 29.656V33H92.6897ZM112.268 33.192C111.393 33.192 110.577 33.0373 109.82 32.728C109.063 32.4187 108.401 31.9867 107.836 31.432C107.271 30.8773 106.828 30.2267 106.508 29.48C106.199 28.7227 106.044 27.9067 106.044 27.032C106.044 26.1467 106.199 25.3307 106.508 24.584C106.817 23.8373 107.255 23.1867 107.82 22.632C108.385 22.0773 109.047 21.6507 109.804 21.352C110.561 21.0427 111.383 20.888 112.268 20.888C113.153 20.888 113.975 21.0427 114.732 21.352C115.489 21.6613 116.151 22.0933 116.716 22.648C117.281 23.192 117.719 23.8373 118.028 24.584C118.348 25.3307 118.508 26.1467 118.508 27.032C118.508 27.9067 118.348 28.7227 118.028 29.48C117.708 30.2267 117.265 30.8773 116.7 31.432C116.135 31.9867 115.473 32.4187 114.716 32.728C113.969 33.0373 113.153 33.192 112.268 33.192ZM112.268 31.208C112.855 31.208 113.393 31.1067 113.884 30.904C114.375 30.6907 114.801 30.3973 115.164 30.024C115.537 29.6507 115.82 29.208 116.012 28.696C116.215 28.184 116.316 27.6293 116.316 27.032C116.316 26.4347 116.215 25.8853 116.012 25.384C115.82 24.872 115.537 24.4293 115.164 24.056C114.801 23.672 114.375 23.3787 113.884 23.176C113.393 22.9733 112.855 22.872 112.268 22.872C111.692 22.872 111.159 22.9733 110.668 23.176C110.177 23.3787 109.745 23.672 109.372 24.056C109.009 24.4293 108.727 24.872 108.524 25.384C108.321 25.8853 108.22 26.4347 108.22 27.032C108.22 27.6293 108.321 28.184 108.524 28.696C108.727 29.208 109.009 29.6507 109.372 30.024C109.745 30.3973 110.177 30.6907 110.668 30.904C111.159 31.1067 111.692 31.208 112.268 31.208ZM123.316 33L119.156 21.08H121.524L124.788 30.952H124.324L127.588 21.08H129.956L125.812 33H123.316ZM131.29 33V21.08H139.21V23H133.466V26.056H138.89V27.976H133.466V31.08H139.21V33H131.29ZM140.807 33V21.08H145.239C146.05 21.08 146.764 21.2293 147.383 21.528C148.012 21.816 148.503 22.2427 148.855 22.808C149.207 23.3627 149.383 24.04 149.383 24.84C149.383 25.6613 149.186 26.36 148.791 26.936C148.407 27.512 147.884 27.9387 147.223 28.216L149.959 33H147.495L144.567 27.768L145.975 28.6H142.983V33H140.807ZM142.983 26.68H145.271C145.666 26.68 146.007 26.6053 146.295 26.456C146.583 26.296 146.807 26.0773 146.967 25.8C147.127 25.5227 147.207 25.2027 147.207 24.84C147.207 24.4667 147.127 24.1467 146.967 23.88C146.807 23.6027 146.583 23.3893 146.295 23.24C146.007 23.08 145.666 23 145.271 23H142.983V26.68ZM151.387 33V21.08H159.339V23H153.563V26.296H158.619V28.216H153.563V33H151.387ZM160.763 33V21.08H162.939V31.08H168.043V33H160.763ZM175.012 33.192C174.137 33.192 173.321 33.0373 172.564 32.728C171.807 32.4187 171.145 31.9867 170.58 31.432C170.015 30.8773 169.572 30.2267 169.252 29.48C168.943 28.7227 168.788 27.9067 168.788 27.032C168.788 26.1467 168.943 25.3307 169.252 24.584C169.561 23.8373 169.999 23.1867 170.564 22.632C171.129 22.0773 171.791 21.6507 172.548 21.352C173.305 21.0427 174.127 20.888 175.012 20.888C175.897 20.888 176.719 21.0427 177.476 21.352C178.233 21.6613 178.895 22.0933 179.46 22.648C180.025 23.192 180.463 23.8373 180.772 24.584C181.092 25.3307 181.252 26.1467 181.252 27.032C181.252 27.9067 181.092 28.7227 180.772 29.48C180.452 30.2267 180.009 30.8773 179.444 31.432C178.879 31.9867 178.217 32.4187 177.46 32.728C176.713 33.0373 175.897 33.192 175.012 33.192ZM175.012 31.208C175.599 31.208 176.137 31.1067 176.628 30.904C177.119 30.6907 177.545 30.3973 177.908 30.024C178.281 29.6507 178.564 29.208 178.756 28.696C178.959 28.184 179.06 27.6293 179.06 27.032C179.06 26.4347 178.959 25.8853 178.756 25.384C178.564 24.872 178.281 24.4293 177.908 24.056C177.545 23.672 177.119 23.3787 176.628 23.176C176.137 22.9733 175.599 22.872 175.012 22.872C174.436 22.872 173.903 22.9733 173.412 23.176C172.921 23.3787 172.489 23.672 172.116 24.056C171.753 24.4293 171.471 24.872 171.268 25.384C171.065 25.8853 170.964 26.4347 170.964 27.032C170.964 27.6293 171.065 28.184 171.268 28.696C171.471 29.208 171.753 29.6507 172.116 30.024C172.489 30.3973 172.921 30.6907 173.412 30.904C173.903 31.1067 174.436 31.208 175.012 31.208ZM185.1 33L181.9 21.08H184.236L186.748 31.24H186.14L188.764 21.08H191.02L193.628 31.24H193.02L195.532 21.08H197.868L194.668 33H192.172L189.532 23.112H190.236L187.596 33H185.1Z" fill="#DFDFDF"/>
<defs>
<linearGradient id="paint0_linear_112_110" x1="0" y1="26" x2="219" y2="26" gradientUnits="userSpaceOnUse">
<stop stop-color="#8843F6"/>
<stop offset="1" stop-color="#33076A"/>
</linearGradient>
<linearGradient id="paint1_linear_112_110" x1="105.589" y1="1.58135e-07" x2="123.191" y2="54.2206" gradientUnits="userSpaceOnUse">
<stop stop-color="#5D13B7"/>
<stop offset="0.331731" stop-opacity="0"/>
<stop offset="0.665865" stop-opacity="0"/>
<stop offset="1" stop-color="#5D13B7"/>
</linearGradient>
<clipPath id="clip0_112_110">
<rect width="20" height="24" fill="white" transform="translate(20 14)"/>
</clipPath>
</defs>
</svg>
