<svg width="151" height="32" viewBox="0 0 151 32" fill="none" xmlns="http://www.w3.org/2000/svg">
<rect width="150.96" height="32" fill="#88F2A2"/>
<g clip-path="url(#clip0_29_319)">
<path d="M30.0432 23.8376V18.9729H32.204V25.9995H16V18.9729H18.1609V23.8376H30.0432Z" fill="#0D1117"/>
<path d="M28.4233 20.0537L28.8552 18.4318L20.1587 16.6489L19.7808 18.4318L28.4233 20.0537ZM20.9697 14.216L29.0712 17.9998L29.8272 16.3779L21.7256 12.5951L20.9697 14.216ZM23.2376 10.2162L30.0432 15.9459L31.1781 14.595L24.3185 8.86532L23.1836 10.2162H23.2376ZM27.6133 6.00049L26.1544 7.08142L31.5021 14.27L32.96 13.1891L27.6133 6.00049ZM19.7808 22.2155H28.4233V20.5946H19.7808V22.2155Z" fill="#0D1117"/>
</g>
<path d="M44.584 20.62C43.984 20.62 43.464 20.52 43.024 20.32C42.584 20.12 42.244 19.836 42.004 19.468C41.772 19.092 41.652 18.652 41.644 18.148H43.144C43.144 18.508 43.272 18.792 43.528 19C43.792 19.2 44.148 19.3 44.596 19.3C45.028 19.3 45.364 19.2 45.604 19C45.852 18.8 45.976 18.524 45.976 18.172C45.976 17.876 45.888 17.62 45.712 17.404C45.544 17.18 45.3 17.028 44.98 16.948L43.972 16.672C43.284 16.496 42.752 16.18 42.376 15.724C42.008 15.268 41.824 14.716 41.824 14.068C41.824 13.572 41.936 13.14 42.16 12.772C42.384 12.404 42.7 12.12 43.108 11.92C43.524 11.72 44.012 11.62 44.572 11.62C45.42 11.62 46.092 11.84 46.588 12.28C47.084 12.712 47.336 13.296 47.344 14.032H45.844C45.844 13.688 45.732 13.42 45.508 13.228C45.284 13.028 44.968 12.928 44.56 12.928C44.168 12.928 43.864 13.02 43.648 13.204C43.432 13.388 43.324 13.648 43.324 13.984C43.324 14.288 43.404 14.548 43.564 14.764C43.732 14.972 43.972 15.12 44.284 15.208L45.328 15.496C46.024 15.672 46.556 15.988 46.924 16.444C47.292 16.892 47.476 17.448 47.476 18.112C47.476 18.608 47.356 19.048 47.116 19.432C46.876 19.808 46.54 20.1 46.108 20.308C45.676 20.516 45.168 20.62 44.584 20.62ZM51.0005 20.5V13.132H48.7085V11.74H54.8045V13.132H52.5125V20.5H51.0005ZM55.773 20.5L57.981 11.74H59.913L62.133 20.5H60.597L60.117 18.376H57.789L57.309 20.5H55.773ZM58.065 17.152H59.841L59.313 14.8C59.225 14.408 59.149 14.056 59.085 13.744C59.021 13.424 58.977 13.192 58.953 13.048C58.929 13.192 58.885 13.424 58.821 13.744C58.765 14.056 58.689 14.404 58.593 14.788L58.065 17.152ZM66.1975 20.62C65.6375 20.62 65.1455 20.516 64.7215 20.308C64.3055 20.092 63.9815 19.792 63.7495 19.408C63.5255 19.016 63.4135 18.556 63.4135 18.028V14.212C63.4135 13.676 63.5255 13.216 63.7495 12.832C63.9815 12.448 64.3055 12.152 64.7215 11.944C65.1455 11.728 65.6375 11.62 66.1975 11.62C66.7655 11.62 67.2535 11.728 67.6615 11.944C68.0775 12.152 68.4015 12.448 68.6335 12.832C68.8655 13.216 68.9815 13.676 68.9815 14.212H67.4695C67.4695 13.796 67.3575 13.48 67.1335 13.264C66.9175 13.048 66.6055 12.94 66.1975 12.94C65.7895 12.94 65.4735 13.048 65.2495 13.264C65.0255 13.48 64.9135 13.792 64.9135 14.2V18.028C64.9135 18.436 65.0255 18.752 65.2495 18.976C65.4735 19.192 65.7895 19.3 66.1975 19.3C66.6055 19.3 66.9175 19.192 67.1335 18.976C67.3575 18.752 67.4695 18.436 67.4695 18.028H68.9815C68.9815 18.548 68.8655 19.004 68.6335 19.396C68.4015 19.788 68.0775 20.092 67.6615 20.308C67.2535 20.516 66.7655 20.62 66.1975 20.62ZM70.658 20.5V11.74H72.158V15.28H73.202L74.846 11.74H76.478L74.522 15.94L76.574 20.5H74.906L73.178 16.648H72.158V20.5H70.658ZM80.5425 20.62C79.9825 20.62 79.4945 20.516 79.0785 20.308C78.6705 20.092 78.3545 19.792 78.1305 19.408C77.9145 19.016 77.8065 18.556 77.8065 18.028V14.212C77.8065 13.684 77.9145 13.228 78.1305 12.844C78.3545 12.452 78.6705 12.152 79.0785 11.944C79.4945 11.728 79.9825 11.62 80.5425 11.62C81.1105 11.62 81.5985 11.728 82.0065 11.944C82.4145 12.152 82.7265 12.452 82.9425 12.844C83.1665 13.228 83.2785 13.68 83.2785 14.2V18.028C83.2785 18.556 83.1665 19.016 82.9425 19.408C82.7265 19.792 82.4145 20.092 82.0065 20.308C81.5985 20.516 81.1105 20.62 80.5425 20.62ZM80.5425 19.3C80.9505 19.3 81.2585 19.192 81.4665 18.976C81.6745 18.752 81.7785 18.436 81.7785 18.028V14.212C81.7785 13.796 81.6745 13.48 81.4665 13.264C81.2585 13.048 80.9505 12.94 80.5425 12.94C80.1345 12.94 79.8265 13.048 79.6185 13.264C79.4105 13.48 79.3065 13.796 79.3065 14.212V18.028C79.3065 18.436 79.4105 18.752 79.6185 18.976C79.8345 19.192 80.1425 19.3 80.5425 19.3ZM86.767 20.5L84.559 11.74H86.119L87.439 17.452C87.511 17.732 87.579 18.032 87.643 18.352C87.707 18.672 87.755 18.932 87.787 19.132C87.819 18.932 87.863 18.672 87.919 18.352C87.975 18.032 88.035 17.728 88.099 17.44L89.407 11.74H90.919L88.711 20.5H86.767ZM92.3915 20.5V11.74H97.6475V13.048H93.8675V15.328H97.2275V16.624H93.8675V19.192H97.6475V20.5H92.3915ZM99.4441 20.5V11.74H102.216C102.8 11.74 103.304 11.848 103.728 12.064C104.16 12.28 104.496 12.584 104.736 12.976C104.976 13.36 105.096 13.816 105.096 14.344C105.096 14.92 104.948 15.428 104.652 15.868C104.364 16.308 103.972 16.62 103.476 16.804L105.216 20.5H103.536L102.012 17.02H100.944V20.5H99.4441ZM100.944 15.7H102.216C102.64 15.7 102.972 15.584 103.212 15.352C103.452 15.12 103.572 14.8 103.572 14.392C103.572 13.976 103.452 13.652 103.212 13.42C102.972 13.18 102.64 13.06 102.216 13.06H100.944V15.7ZM106.689 20.5V11.74H112.137V13.132H108.165V15.472H111.825V16.864H108.189V20.5H106.689ZM114.161 20.5V11.74H115.661V19.108H119.381V20.5H114.161ZM123.722 20.62C123.162 20.62 122.674 20.516 122.258 20.308C121.85 20.092 121.534 19.792 121.31 19.408C121.094 19.016 120.986 18.556 120.986 18.028V14.212C120.986 13.684 121.094 13.228 121.31 12.844C121.534 12.452 121.85 12.152 122.258 11.944C122.674 11.728 123.162 11.62 123.722 11.62C124.29 11.62 124.778 11.728 125.186 11.944C125.594 12.152 125.906 12.452 126.122 12.844C126.346 13.228 126.458 13.68 126.458 14.2V18.028C126.458 18.556 126.346 19.016 126.122 19.408C125.906 19.792 125.594 20.092 125.186 20.308C124.778 20.516 124.29 20.62 123.722 20.62ZM123.722 19.3C124.13 19.3 124.438 19.192 124.646 18.976C124.854 18.752 124.958 18.436 124.958 18.028V14.212C124.958 13.796 124.854 13.48 124.646 13.264C124.438 13.048 124.13 12.94 123.722 12.94C123.314 12.94 123.006 13.048 122.798 13.264C122.59 13.48 122.486 13.796 122.486 14.212V18.028C122.486 18.436 122.59 18.752 122.798 18.976C123.014 19.192 123.322 19.3 123.722 19.3ZM128.41 20.5L127.51 11.74H128.806L129.334 17.86C129.35 17.996 129.362 18.164 129.37 18.364C129.386 18.556 129.398 18.752 129.406 18.952C129.422 19.152 129.43 19.328 129.43 19.48C129.446 19.328 129.462 19.152 129.478 18.952C129.494 18.752 129.51 18.556 129.526 18.364C129.55 18.164 129.57 17.996 129.586 17.86L130.306 11.74H131.566L132.238 17.86C132.262 17.996 132.282 18.164 132.298 18.364C132.322 18.556 132.346 18.752 132.37 18.952C132.394 19.152 132.414 19.328 132.43 19.48C132.438 19.328 132.446 19.152 132.454 18.952C132.462 18.752 132.47 18.556 132.478 18.364C132.494 18.164 132.51 17.996 132.526 17.86L133.042 11.74H134.326L133.378 20.5H131.722L131.074 14.356C131.058 14.204 131.038 14.028 131.014 13.828C130.998 13.62 130.982 13.416 130.966 13.216C130.95 13.008 130.938 12.832 130.93 12.688C130.922 12.832 130.906 13.008 130.882 13.216C130.866 13.416 130.85 13.62 130.834 13.828C130.818 14.028 130.802 14.204 130.786 14.356L130.078 20.5H128.41Z" fill="#0D1117"/>
<defs>
<clipPath id="clip0_29_319">
<rect width="16.96" height="20" fill="white" transform="translate(16 6)"/>
</clipPath>
</defs>
</svg>
