<svg width="139" height="36" viewBox="0 0 139 36" fill="none" xmlns="http://www.w3.org/2000/svg">
<rect width="138.96" height="36" rx="4" fill="#9F06FF"/>
<g clip-path="url(#clip0_92_535)">
<path d="M30.0432 25.8374V20.9727H32.204V27.9992H16V20.9727H18.1609V25.8374H30.0432Z" fill="#0A0E10"/>
<path d="M28.4233 22.0537L28.8552 20.4318L20.1587 18.6489L19.7808 20.4318L28.4233 22.0537ZM20.9697 16.216L29.0712 19.9998L29.8272 18.3779L21.7256 14.5951L20.9697 16.216ZM23.2376 12.2162L30.0432 17.9459L31.1781 16.595L24.3185 10.8653L23.1836 12.2162H23.2376ZM27.6133 8.00049L26.1544 9.08142L31.5021 16.27L32.96 15.1891L27.6133 8.00049ZM19.7808 24.2155H28.4233V22.5946H19.7808V24.2155Z" fill="#0A0E10"/>
</g>
<path d="M47.0848 15.768C46.9888 15.656 46.8608 15.548 46.7008 15.444C46.5408 15.34 46.3608 15.248 46.1608 15.168C45.9608 15.08 45.7408 15.012 45.5008 14.964C45.2688 14.908 45.0248 14.88 44.7688 14.88C44.1128 14.88 43.6288 15.004 43.3168 15.252C43.0048 15.5 42.8488 15.84 42.8488 16.272C42.8488 16.576 42.9288 16.816 43.0888 16.992C43.2488 17.168 43.4928 17.312 43.8208 17.424C44.1568 17.536 44.5808 17.652 45.0928 17.772C45.6848 17.9 46.1968 18.056 46.6288 18.24C47.0608 18.424 47.3928 18.672 47.6248 18.984C47.8568 19.288 47.9728 19.696 47.9728 20.208C47.9728 20.616 47.8928 20.972 47.7328 21.276C47.5808 21.572 47.3648 21.82 47.0848 22.02C46.8048 22.212 46.4768 22.356 46.1008 22.452C45.7248 22.54 45.3168 22.584 44.8768 22.584C44.4448 22.584 44.0208 22.54 43.6048 22.452C43.1968 22.356 42.8088 22.22 42.4408 22.044C42.0728 21.868 41.7288 21.648 41.4088 21.384L41.9248 20.472C42.0528 20.608 42.2168 20.744 42.4168 20.88C42.6248 21.008 42.8568 21.128 43.1128 21.24C43.3768 21.352 43.6608 21.444 43.9648 21.516C44.2688 21.58 44.5808 21.612 44.9008 21.612C45.5088 21.612 45.9808 21.504 46.3168 21.288C46.6528 21.064 46.8208 20.74 46.8208 20.316C46.8208 19.996 46.7248 19.74 46.5328 19.548C46.3488 19.356 46.0728 19.196 45.7048 19.068C45.3368 18.94 44.8888 18.812 44.3608 18.684C43.7848 18.54 43.3008 18.384 42.9088 18.216C42.5168 18.04 42.2208 17.812 42.0208 17.532C41.8288 17.252 41.7328 16.888 41.7328 16.44C41.7328 15.896 41.8648 15.436 42.1288 15.06C42.3928 14.684 42.7568 14.4 43.2208 14.208C43.6848 14.016 44.2088 13.92 44.7928 13.92C45.1768 13.92 45.5328 13.96 45.8608 14.04C46.1968 14.12 46.5088 14.232 46.7968 14.376C47.0848 14.52 47.3488 14.692 47.5888 14.892L47.0848 15.768ZM52.3493 22.188C52.2613 22.228 52.1413 22.28 51.9893 22.344C51.8373 22.408 51.6613 22.464 51.4613 22.512C51.2613 22.56 51.0493 22.584 50.8253 22.584C50.5693 22.584 50.3333 22.54 50.1173 22.452C49.9013 22.356 49.7293 22.212 49.6013 22.02C49.4733 21.82 49.4093 21.572 49.4093 21.276V17.064H48.5573V16.236H49.4093V14.148H50.4653V16.236H51.8693V17.064H50.4653V20.952C50.4813 21.176 50.5573 21.344 50.6933 21.456C50.8293 21.56 50.9893 21.612 51.1733 21.612C51.3813 21.612 51.5733 21.576 51.7493 21.504C51.9253 21.432 52.0413 21.38 52.0973 21.348L52.3493 22.188ZM52.8372 20.688C52.8372 20.288 52.9492 19.944 53.1732 19.656C53.4052 19.36 53.7212 19.132 54.1212 18.972C54.5212 18.812 54.9852 18.732 55.5132 18.732C55.7932 18.732 56.0892 18.756 56.4012 18.804C56.7132 18.844 56.9892 18.908 57.2292 18.996V18.54C57.2292 18.06 57.0852 17.684 56.7972 17.412C56.5092 17.132 56.1012 16.992 55.5732 16.992C55.2292 16.992 54.8972 17.056 54.5772 17.184C54.2652 17.304 53.9332 17.48 53.5812 17.712L53.1972 16.968C53.6052 16.688 54.0132 16.48 54.4212 16.344C54.8292 16.2 55.2532 16.128 55.6932 16.128C56.4932 16.128 57.1252 16.352 57.5892 16.8C58.0532 17.24 58.2852 17.856 58.2852 18.648V21.3C58.2852 21.428 58.3092 21.524 58.3572 21.588C58.4132 21.644 58.5012 21.676 58.6212 21.684V22.5C58.5172 22.516 58.4252 22.528 58.3452 22.536C58.2732 22.544 58.2132 22.548 58.1652 22.548C57.9172 22.548 57.7292 22.48 57.6012 22.344C57.4812 22.208 57.4132 22.064 57.3972 21.912L57.3732 21.516C57.1012 21.868 56.7452 22.14 56.3052 22.332C55.8652 22.524 55.4292 22.62 54.9972 22.62C54.5812 22.62 54.2092 22.536 53.8812 22.368C53.5532 22.192 53.2972 21.96 53.1132 21.672C52.9292 21.376 52.8372 21.048 52.8372 20.688ZM56.9172 21.132C57.0132 21.02 57.0892 20.908 57.1452 20.796C57.2012 20.676 57.2292 20.576 57.2292 20.496V19.716C56.9812 19.62 56.7212 19.548 56.4492 19.5C56.1772 19.444 55.9092 19.416 55.6452 19.416C55.1092 19.416 54.6732 19.524 54.3372 19.74C54.0092 19.948 53.8452 20.236 53.8452 20.604C53.8452 20.804 53.8972 21 54.0012 21.192C54.1132 21.376 54.2732 21.528 54.4812 21.648C54.6972 21.768 54.9612 21.828 55.2732 21.828C55.6012 21.828 55.9132 21.764 56.2092 21.636C56.5052 21.5 56.7412 21.332 56.9172 21.132ZM62.747 22.62C62.275 22.62 61.843 22.536 61.451 22.368C61.067 22.192 60.731 21.952 60.443 21.648C60.163 21.344 59.943 20.996 59.783 20.604C59.631 20.212 59.555 19.796 59.555 19.356C59.555 18.764 59.687 18.224 59.951 17.736C60.215 17.248 60.587 16.86 61.067 16.572C61.547 16.276 62.103 16.128 62.735 16.128C63.351 16.128 63.887 16.268 64.343 16.548C64.807 16.82 65.151 17.188 65.375 17.652L64.343 17.976C64.183 17.68 63.959 17.452 63.671 17.292C63.383 17.124 63.063 17.04 62.711 17.04C62.327 17.04 61.975 17.14 61.655 17.34C61.343 17.54 61.095 17.816 60.911 18.168C60.727 18.512 60.635 18.908 60.635 19.356C60.635 19.796 60.727 20.196 60.911 20.556C61.103 20.908 61.355 21.188 61.667 21.396C61.987 21.604 62.339 21.708 62.723 21.708C62.971 21.708 63.207 21.664 63.431 21.576C63.663 21.488 63.863 21.372 64.031 21.228C64.207 21.076 64.327 20.912 64.391 20.736L65.423 21.048C65.295 21.352 65.099 21.624 64.835 21.864C64.579 22.096 64.271 22.28 63.911 22.416C63.559 22.552 63.171 22.62 62.747 22.62ZM71.0367 22.5L68.8647 19.452L67.6767 20.568V22.5H66.6207V13.74H67.6767V19.464L70.9167 16.248H72.0567L69.5607 18.84L72.1767 22.5H71.0367ZM76.5389 22.56C75.9389 22.56 75.3949 22.44 74.9069 22.2C74.4189 21.96 73.9949 21.636 73.6349 21.228C73.2829 20.812 73.0109 20.348 72.8189 19.836C72.6269 19.316 72.5309 18.784 72.5309 18.24C72.5309 17.672 72.6309 17.132 72.8309 16.62C73.0389 16.1 73.3229 15.64 73.6829 15.24C74.0509 14.832 74.4789 14.512 74.9669 14.28C75.4549 14.04 75.9869 13.92 76.5629 13.92C77.1629 13.92 77.7069 14.044 78.1949 14.292C78.6829 14.54 79.1029 14.872 79.4549 15.288C79.8069 15.704 80.0789 16.168 80.2709 16.68C80.4629 17.192 80.5589 17.716 80.5589 18.252C80.5589 18.82 80.4589 19.364 80.2589 19.884C80.0589 20.396 79.7749 20.856 79.4069 21.264C79.0469 21.664 78.6229 21.98 78.1349 22.212C77.6469 22.444 77.1149 22.56 76.5389 22.56ZM73.6229 18.24C73.6229 18.672 73.6909 19.092 73.8269 19.5C73.9709 19.9 74.1709 20.256 74.4269 20.568C74.6829 20.88 74.9909 21.128 75.3509 21.312C75.7109 21.496 76.1109 21.588 76.5509 21.588C77.0069 21.588 77.4149 21.492 77.7749 21.3C78.1349 21.108 78.4389 20.852 78.6869 20.532C78.9429 20.212 79.1349 19.852 79.2629 19.452C79.3989 19.052 79.4669 18.648 79.4669 18.24C79.4669 17.808 79.3949 17.392 79.2509 16.992C79.1149 16.592 78.9149 16.236 78.6509 15.924C78.3949 15.604 78.0869 15.356 77.7269 15.18C77.3749 14.996 76.9829 14.904 76.5509 14.904C76.0949 14.904 75.6869 15 75.3269 15.192C74.9669 15.376 74.6589 15.628 74.4029 15.948C74.1549 16.268 73.9629 16.628 73.8269 17.028C73.6909 17.42 73.6229 17.824 73.6229 18.24ZM83.6926 22.5L81.2326 16.236H82.3366L84.3046 21.492L86.2726 16.236H87.3046L84.8446 22.5H83.6926ZM90.9237 22.62C90.4517 22.62 90.0197 22.536 89.6277 22.368C89.2437 22.192 88.9077 21.956 88.6197 21.66C88.3397 21.356 88.1197 21.008 87.9597 20.616C87.8077 20.224 87.7317 19.808 87.7317 19.368C87.7317 18.776 87.8677 18.236 88.1397 17.748C88.4117 17.26 88.7877 16.868 89.2677 16.572C89.7557 16.276 90.3117 16.128 90.9357 16.128C91.5677 16.128 92.1157 16.28 92.5797 16.584C93.0517 16.88 93.4157 17.272 93.6717 17.76C93.9357 18.24 94.0677 18.76 94.0677 19.32C94.0677 19.4 94.0637 19.48 94.0557 19.56C94.0557 19.632 94.0517 19.688 94.0437 19.728H88.8477C88.8797 20.136 88.9917 20.5 89.1837 20.82C89.3837 21.132 89.6397 21.38 89.9517 21.564C90.2637 21.74 90.5997 21.828 90.9597 21.828C91.3437 21.828 91.7037 21.732 92.0397 21.54C92.3837 21.348 92.6197 21.096 92.7477 20.784L93.6597 21.036C93.5237 21.34 93.3197 21.612 93.0477 21.852C92.7837 22.092 92.4677 22.28 92.0997 22.416C91.7397 22.552 91.3477 22.62 90.9237 22.62ZM88.8117 18.996H93.0837C93.0517 18.588 92.9357 18.228 92.7357 17.916C92.5357 17.604 92.2797 17.36 91.9677 17.184C91.6557 17.008 91.3117 16.92 90.9357 16.92C90.5677 16.92 90.2277 17.008 89.9157 17.184C89.6037 17.36 89.3477 17.604 89.1477 17.916C88.9557 18.228 88.8437 18.588 88.8117 18.996ZM98.5547 17.16C98.0267 17.168 97.5587 17.304 97.1507 17.568C96.7507 17.824 96.4667 18.18 96.2987 18.636V22.5H95.2427V16.236H96.2267V17.688C96.4427 17.256 96.7267 16.908 97.0787 16.644C97.4387 16.372 97.8147 16.22 98.2067 16.188C98.2867 16.188 98.3547 16.188 98.4107 16.188C98.4667 16.188 98.5147 16.192 98.5547 16.2V17.16ZM104.799 22.584C104.391 22.584 104.067 22.468 103.827 22.236C103.595 22.004 103.479 21.68 103.479 21.264V15.864C103.479 15.656 103.443 15.452 103.371 15.252C103.299 15.044 103.175 14.872 102.999 14.736C102.823 14.6 102.575 14.532 102.255 14.532C101.967 14.532 101.731 14.6 101.547 14.736C101.363 14.872 101.227 15.06 101.139 15.3C101.051 15.54 101.003 15.816 100.995 16.128V16.236H102.231V17.064H100.995V22.5H99.9393V17.064H99.0873V16.236H99.9393V16.02C99.9393 15.532 100.027 15.112 100.203 14.76C100.379 14.4 100.635 14.12 100.971 13.92C101.315 13.72 101.739 13.62 102.243 13.62C103.011 13.62 103.583 13.808 103.959 14.184C104.343 14.56 104.535 15.044 104.535 15.636V20.88C104.535 21.224 104.583 21.436 104.679 21.516C104.775 21.596 104.891 21.636 105.027 21.636C105.195 21.636 105.355 21.62 105.507 21.588C105.659 21.548 105.787 21.508 105.891 21.468L106.059 22.332C105.947 22.38 105.815 22.424 105.663 22.464C105.511 22.496 105.359 22.524 105.207 22.548C105.063 22.572 104.927 22.584 104.799 22.584ZM109.618 22.62C109.146 22.62 108.718 22.536 108.334 22.368C107.95 22.192 107.618 21.956 107.338 21.66C107.058 21.356 106.842 21.008 106.69 20.616C106.538 20.224 106.462 19.812 106.462 19.38C106.462 18.94 106.538 18.524 106.69 18.132C106.842 17.74 107.058 17.396 107.338 17.1C107.618 16.796 107.95 16.56 108.334 16.392C108.726 16.216 109.154 16.128 109.618 16.128C110.09 16.128 110.518 16.216 110.902 16.392C111.286 16.56 111.618 16.796 111.898 17.1C112.186 17.396 112.406 17.74 112.558 18.132C112.71 18.524 112.786 18.94 112.786 19.38C112.786 19.812 112.71 20.224 112.558 20.616C112.406 21.008 112.19 21.356 111.91 21.66C111.63 21.956 111.294 22.192 110.902 22.368C110.518 22.536 110.09 22.62 109.618 22.62ZM107.542 19.392C107.542 19.824 107.634 20.216 107.818 20.568C108.01 20.92 108.262 21.2 108.574 21.408C108.886 21.608 109.234 21.708 109.618 21.708C110.002 21.708 110.35 21.604 110.662 21.396C110.982 21.188 111.234 20.908 111.418 20.556C111.61 20.196 111.706 19.8 111.706 19.368C111.706 18.936 111.61 18.544 111.418 18.192C111.234 17.84 110.982 17.56 110.662 17.352C110.35 17.144 110.002 17.04 109.618 17.04C109.234 17.04 108.886 17.148 108.574 17.364C108.262 17.572 108.01 17.852 107.818 18.204C107.634 18.556 107.542 18.952 107.542 19.392ZM121.704 16.236H122.724L120.06 22.5H119.136L117.924 19.548L116.724 22.5H115.8L113.136 16.236H114.144L116.304 21.456L117.312 18.888L116.256 16.248H117.18L117.924 18.24L118.668 16.248H119.592L118.548 18.888L119.556 21.456L121.704 16.236Z" fill="#0A0E10"/>
<defs>
<clipPath id="clip0_92_535">
<rect width="16.96" height="20" fill="white" transform="translate(16 8)"/>
</clipPath>
</defs>
</svg>
