<svg width="24" height="24" viewBox="0 0 24 24" fill="none" xmlns="http://www.w3.org/2000/svg">
<g clip-path="url(#clip0_112_131)">
<path d="M13.98 11.08H16.1C16.1249 11.08 16.1497 11.0751 16.1727 11.0655C16.1958 11.056 16.2167 11.042 16.2343 11.0243C16.252 11.0067 16.266 10.9858 16.2755 10.9627C16.2851 10.9397 16.29 10.915 16.29 10.89V9.01C16.29 8.98505 16.2851 8.96034 16.2755 8.93729C16.266 8.91424 16.252 8.89329 16.2343 8.87565C16.2167 8.85801 16.1958 8.84401 16.1727 8.83446C16.1497 8.82491 16.1249 8.82 16.1 8.82H13.98C13.9323 8.82 13.8865 8.83896 13.8527 8.87272C13.819 8.90648 13.8 8.95226 13.8 9V10.9C13.8 11 13.88 11.08 13.98 11.08ZM11.03 5.65H13.15C13.1986 5.64744 13.2444 5.62629 13.2779 5.59093C13.3114 5.55558 13.3301 5.5087 13.33 5.46V3.57C13.3276 3.52304 13.3078 3.47865 13.2746 3.4454C13.2413 3.41215 13.1969 3.39241 13.15 3.39H11.03C11.0055 3.38864 10.981 3.39229 10.958 3.40072C10.935 3.40915 10.914 3.4222 10.8962 3.43905C10.8784 3.4559 10.8642 3.47621 10.8546 3.49873C10.8449 3.52124 10.84 3.5455 10.84 3.57V5.47C10.84 5.57 10.93 5.65 11.03 5.65ZM11.03 8.36H13.15C13.1969 8.35759 13.2413 8.33785 13.2746 8.3046C13.3078 8.27135 13.3276 8.22696 13.33 8.18V6.29C13.3276 6.24304 13.3078 6.19865 13.2746 6.1654C13.2413 6.13215 13.1969 6.11241 13.15 6.11H11.03C11.0055 6.10864 10.981 6.11229 10.958 6.12072C10.935 6.12915 10.914 6.1422 10.8962 6.15905C10.8784 6.1759 10.8642 6.19621 10.8546 6.21872C10.8449 6.24124 10.84 6.2655 10.84 6.29V8.18C10.84 8.28 10.93 8.36 11.03 8.36ZM8.09999 8.36H10.22C10.267 8.35759 10.3113 8.33785 10.3446 8.3046C10.3778 8.27135 10.3976 8.22696 10.4 8.18V6.29C10.4 6.24226 10.381 6.19648 10.3473 6.16272C10.3135 6.12896 10.2677 6.11 10.22 6.11H8.09999C8.05225 6.11 8.00647 6.12896 7.97271 6.16272C7.93896 6.19648 7.91999 6.24226 7.91999 6.29V8.18C7.91999 8.28 7.99999 8.36 8.09999 8.36ZM5.13999 8.36H7.24999C7.2987 8.36007 7.34557 8.34143 7.38093 8.30793C7.41628 8.27443 7.43743 8.22864 7.43999 8.18V6.29C7.44003 6.2655 7.43506 6.24124 7.4254 6.21872C7.41573 6.19621 7.40157 6.1759 7.38379 6.15905C7.366 6.1422 7.34496 6.12915 7.32195 6.12072C7.29894 6.11229 7.27446 6.10864 7.24999 6.11H5.13999C5.09129 6.10993 5.04441 6.12857 5.00906 6.16207C4.9737 6.19556 4.95256 6.24136 4.94999 6.29V8.18C4.94999 8.28 5.02999 8.36 5.13999 8.36ZM11.03 11.08H13.15C13.1986 11.0774 13.2444 11.0563 13.2779 11.0209C13.3114 10.9856 13.3301 10.9387 13.33 10.89V9.01C13.3301 8.96129 13.3114 8.91442 13.2779 8.87906C13.2444 8.84371 13.1986 8.82256 13.15 8.82H11.03C11.0055 8.81864 10.981 8.82229 10.958 8.83072C10.935 8.83915 10.914 8.8522 10.8962 8.86905C10.8784 8.8859 10.8642 8.90621 10.8546 8.92873C10.8449 8.95124 10.84 8.9755 10.84 9V10.9C10.84 11 10.93 11.08 11.03 11.08ZM8.09999 11.08H10.22C10.2445 11.08 10.2687 11.0751 10.2913 11.0654C10.3138 11.0557 10.3341 11.0416 10.3509 11.0238C10.3678 11.006 10.3808 10.985 10.3893 10.962C10.3977 10.939 10.4014 10.9145 10.4 10.89V9.01C10.4014 8.98553 10.3977 8.96105 10.3893 8.93804C10.3808 8.91504 10.3678 8.89399 10.3509 8.8762C10.3341 8.85842 10.3138 8.84426 10.2913 8.83459C10.2687 8.82493 10.2445 8.81996 10.22 8.82H8.09999C8.05225 8.82 8.00647 8.83896 7.97271 8.87272C7.93896 8.90648 7.91999 8.95226 7.91999 9V10.9C7.91999 11 7.99999 11.08 8.09999 11.08ZM5.13999 11.08H7.24999C7.27532 11.0815 7.30067 11.0775 7.32438 11.0685C7.34809 11.0595 7.36962 11.0455 7.38757 11.0276C7.40551 11.0096 7.41945 10.9881 7.42849 10.9644C7.43752 10.9407 7.44144 10.9153 7.43999 10.89V9.01C7.44135 8.98553 7.43771 8.96105 7.42927 8.93804C7.42084 8.91504 7.40779 8.89399 7.39094 8.8762C7.37409 8.85842 7.35378 8.84426 7.33127 8.83459C7.30875 8.82493 7.2845 8.81996 7.25999 8.82H5.13999C5.0896 8.82 5.04127 8.84002 5.00564 8.87565C4.97001 8.91128 4.94999 8.95961 4.94999 9.01V10.89C4.94999 10.99 5.02999 11.08 5.13999 11.08ZM2.21999 11.08H4.33999C4.3645 11.08 4.38875 11.0751 4.41127 11.0654C4.43378 11.0557 4.45409 11.0416 4.47094 11.0238C4.48779 11.006 4.50084 10.985 4.50927 10.962C4.5177 10.939 4.52135 10.9145 4.51999 10.89V9.01C4.52135 8.98553 4.5177 8.96105 4.50927 8.93804C4.50084 8.91504 4.48779 8.89399 4.47094 8.8762C4.45409 8.85842 4.43378 8.84426 4.41127 8.83459C4.38875 8.82493 4.3645 8.81996 4.33999 8.82H2.21999C2.19553 8.81864 2.17104 8.82229 2.14803 8.83072C2.12503 8.83915 2.10399 8.8522 2.0862 8.86905C2.06841 8.8859 2.05425 8.90621 2.04458 8.92873C2.03492 8.95124 2.02995 8.9755 2.02999 9V10.9C2.02999 11 2.10999 11.08 2.21999 11.08ZM23.76 9.89C23.7 9.84 23.09 9.38 21.81 9.38C21.47 9.38 21.13 9.41 20.8 9.47C20.7113 8.94437 20.5121 8.44353 20.2156 8.00052C19.9191 7.55752 19.5321 7.18243 19.08 6.9L18.74 6.7L18.51 7.03C18.2305 7.46928 18.0276 7.95281 17.91 8.46C17.67 9.43 17.81 10.34 18.31 11.12C17.7592 11.3714 17.1649 11.514 16.56 11.54H0.759992C0.660662 11.5387 0.562059 11.5571 0.469908 11.5942C0.377756 11.6313 0.293892 11.6863 0.223186 11.7561C0.152479 11.8259 0.0963385 11.909 0.0580237 12.0007C0.0197088 12.0923 -1.68143e-05 12.1907 -7.98376e-06 12.29C-0.015632 13.6746 0.221588 15.0505 0.699992 16.35C1.12846 17.6292 1.97351 18.7277 3.09999 19.47C4.27999 20.2 6.19999 20.61 8.37999 20.61C9.35999 20.61 10.34 20.53 11.31 20.35C12.6525 20.0995 13.9436 19.6263 15.13 18.95C16.109 18.3851 16.9903 17.6658 17.74 16.82C18.99 15.4 19.74 13.82 20.29 12.42H20.52C21.89 12.42 22.73 11.87 23.2 11.42C23.5 11.12 23.75 10.76 23.9 10.36L24 10.08L23.76 9.89Z" fill="#008FE2"/>
</g>
<defs>
<clipPath id="clip0_112_131">
<rect width="24" height="24" fill="white"/>
</clipPath>
</defs>
</svg>
