<svg width="256" height="346" viewBox="0 0 256 346" fill="none" xmlns="http://www.w3.org/2000/svg">
<g clip-path="url(#clip0_112_117)">
<path d="M83 267C83 267 69 275 92 278C119 281 133 280 163 275C163 275 171 280 182 284C115 313 29 282 83 267ZM74 230C74 230 59 241 82 243C111 246 134 246 174 239C174 239 180 244 189 247C107 271 16 249 74 230Z" fill="#5382A1"/>
<path d="M144 166C161 185 140 202 140 202C140 202 182 180 162 153C144 127 130 115 206 71C206 71 87 100 144 166Z" fill="#E76F00"/>
<path d="M233 295C233 295 243 303 223 310C184 322 60 325 26 310C14 305 37 297 44 296L56 294C42 285 -33 313 18 322C156 344 269 312 233 295ZM89 190C89 190 26 205 67 211C84 213 118 213 150 210C176 208 202 203 202 203L186 212C122 228 -1 220 35 203C65 189 89 190 89 190ZM202 253C266 220 236 187 215 192L208 194C208 194 210 191 214 189C255 175 287 232 200 255L202 253Z" fill="#5382A1"/>
<path d="M162 0C162 0 198 36 128 91C72 136 116 161 128 190C96 160 72 134 88 110C111 75 177 57 162 0Z" fill="#E76F00"/>
<path d="M95 345C157 349 253 342 255 313C255 313 251 324 204 333C151 343 85 342 46 335C46 335 54 342 95 345Z" fill="#5382A1"/>
</g>
<defs>
<clipPath id="clip0_112_117">
<rect width="256" height="346" fill="white"/>
</clipPath>
</defs>
</svg>
