<svg width="256" height="252" viewBox="0 0 256 252" fill="none" xmlns="http://www.w3.org/2000/svg">
<g clip-path="url(#clip0_112_125)">
<path d="M236 194C222 194 211 195 202 199C199 200 195 200 195 203L198 209C200 212 203 217 207 220L218 228L239 238L250 247L256 251L253 245L248 240C243 233 237 227 230 222C224 219 212 213 210 207H209L221 204L239 201L247 199V197L238 187C230 179 220 172 210 165L192 157C190 156 186 155 185 153L178 140L163 110L155 90C137 60 117 42 87 25C81 21 73 20 65 18L52 17L44 11C34 5 8.00001 -9 1.00001 9C-3.99999 20 8.00001 31 12 37L21 50L24 59C27 67 29 76 33 83L39 93C41 95 43 96 44 99C41 103 41 108 40 112C33 132 36 156 45 171C47 175 54 185 63 181C71 178 69 168 71 159L72 155L80 169C85 178 94 187 102 193C106 196 110 201 115 203L111 199L102 189C94 179 88 168 82 157L75 140L72 134C69 138 65 141 63 146C60 153 60 163 59 172H58C52 171 50 165 48 160C43 148 42 128 47 114C48 110 53 99 51 95C50 92 47 90 45 88L38 76L28 46L19 33C16 28 12 25 9.00001 19C8.00001 17 7.00001 14 9.00001 12L11 10C13 8 20 10 22 11C28 14 34 16 39 20L47 26H51C57 27 63 26 68 28C77 31 86 35 93 40C116 54 135 75 147 99C150 103 150 107 152 111L164 137C168 145 171 153 176 160C179 164 190 166 194 168L206 172L224 184C226 186 235 191 236 194Z" fill="#00546B"/>
<path d="M58 43L51 44L57 51L61 60V59C64 58 65 55 65 51L63 47L58 43Z" fill="#00546B"/>
</g>
<defs>
<clipPath id="clip0_112_125">
<rect width="256" height="252" fill="white"/>
</clipPath>
</defs>
</svg>
