<svg width="64" height="64" viewBox="0 0 64 64" fill="none" xmlns="http://www.w3.org/2000/svg">
<g clip-path="url(#clip0_112_123)">
<path d="M58.2 3.365C57.3036 5.51418 56.156 7.54968 54.781 9.429C51.7794 6.41484 48.2085 4.02746 44.276 2.40566C40.3435 0.783864 36.1278 -0.0399973 31.8741 -0.0180195C27.6203 0.00395839 23.4134 0.871337 19.4978 2.53369C15.5823 4.19604 12.0363 6.62019 9.06596 9.6652C6.09565 12.7102 3.7603 16.3153 2.19569 20.2709C0.631077 24.2265 -0.13157 28.4537 -0.0479158 32.7067C0.0357387 36.9597 0.964026 41.1536 2.68298 45.0446C4.40192 48.9357 6.87724 52.4462 9.965 55.372L11.151 56.419C15.6769 60.2325 21.1695 62.7197 27.0212 63.6054C32.8729 64.4911 38.8555 63.7408 44.3072 61.4375C49.7589 59.1341 54.4672 55.3676 57.9112 50.5545C61.3551 45.7414 63.4005 40.0694 63.821 34.166C64.696 25.996 62.297 15.656 58.201 3.366L58.2 3.365ZM14.53 55.558C14.1885 55.98 13.7295 56.2912 13.2111 56.4522C12.6926 56.6133 12.1381 56.6169 11.6176 56.4627C11.0971 56.3085 10.634 56.0034 10.287 55.586C9.93992 55.1685 9.72449 54.6575 9.66794 54.1176C9.61139 53.5777 9.71625 53.0332 9.96926 52.5529C10.2223 52.0726 10.6121 51.6781 11.0893 51.4194C11.5666 51.1607 12.1098 51.0494 12.6504 51.0995C13.1909 51.1496 13.7045 51.3589 14.126 51.701C14.6906 52.1592 15.0503 52.8227 15.1261 53.5459C15.2018 54.2691 14.9874 54.9928 14.53 55.558ZM58.068 45.948C50.148 56.498 33.238 52.938 22.396 53.45C22.396 53.45 20.474 53.563 18.539 53.88C18.539 53.88 19.269 53.57 20.202 53.217C27.816 50.567 31.415 50.057 36.04 47.677C44.748 43.25 53.362 33.555 55.152 23.477C51.839 33.172 41.779 41.509 32.622 44.895C26.346 47.208 15.008 49.461 15.008 49.461L14.551 49.216C6.837 45.466 6.599 28.759 20.628 23.371C26.771 21.005 32.648 22.304 39.282 20.721C46.366 19.038 54.562 13.731 57.897 6.805C61.627 17.885 66.121 35.227 58.063 45.955L58.068 45.948Z" fill="#68BD45"/>
</g>
<defs>
<clipPath id="clip0_112_123">
<rect width="64" height="64" fill="white"/>
</clipPath>
</defs>
</svg>
